<svg aria-hidden="true" style="position:absolute;width:0;height:0;overflow:hidden" xmlns="http://www.w3.org/2000/svg">
   <defs>
      <symbol id="icon-logo" viewBox="0 0 82 32">
         <path fill="#0d0e17" style="fill:var(--color1, #0d0e17)"
            d="M5.826 32a1.488 1.488 0 0 1-1.355-2.11l2.498-5.416L.141 8.925a1.648 1.648 0 0 1 1.514-2.309c.662 0 1.261.395 1.52 1.003l4.958 11.632c.112.275.21.55.291.824.081.275.153.556.216.842.086-.286.174-.567.262-.842s.189-.555.301-.842l4.813-11.667a1.54 1.54 0 0 1 1.422-.95h.001a1.535 1.535 0 0 1 1.413 2.142L7.198 31.101a1.494 1.494 0 0 1-1.369.898h-.001z" />
         <path fill="#ed6a32" style="fill:var(--color2, #ed6a32)"
            d="M49.891 1.663v24.201c0 .918-.702 1.663-1.57 1.663s-1.57-.744-1.57-1.663V1.663C46.752.744 47.454 0 48.321 0s1.57.744 1.57 1.663zm7.233 5.779v13.976c0 .918-.702 1.663-1.57 1.663s-1.57-.745-1.57-1.664V7.443c0-.918.702-1.663 1.57-1.663s1.57.744 1.57 1.663zm-14.006 3.992v7.986c0 .918-.702 1.664-1.57 1.664s-1.57-.746-1.57-1.664v-7.986c0-.918.702-1.663 1.57-1.663s1.57.744 1.57 1.663z" />
         <path fill="#0d0e17" style="fill:var(--color1, #0d0e17)"
            d="M26.172 22.766c-3.725 0-6.744-3.013-6.744-6.73s3.019-6.729 6.744-6.729 6.744 3.013 6.744 6.729c0 3.717-3.019 6.73-6.744 6.73zm0-16.492c-5.404 0-9.784 4.371-9.784 9.762s4.381 9.763 9.784 9.763c5.404 0 9.784-4.371 9.784-9.763s-4.38-9.762-9.784-9.762zm45.382 16.492c-3.725 0-6.744-3.013-6.744-6.73s3.019-6.729 6.744-6.729 6.744 3.013 6.744 6.729c0 3.717-3.019 6.73-6.744 6.73zm0-16.492c-5.403 0-9.784 4.371-9.784 9.762s4.381 9.763 9.784 9.763c5.404 0 9.784-4.371 9.784-9.763s-4.38-9.762-9.784-9.762z" />
      </symbol>
      <symbol id="icon-burger" viewBox="0 0 88 32">
         <path d="M0 0h88.32v3.84h-88.32v-3.84z"></path>
         <path d="M0 14.080h88.32v3.84h-88.32v-3.84z"></path>
         <path d="M0 28.16h88.32v3.84h-88.32v-3.84z"></path>
      </symbol>
      <symbol id="icon-close" viewBox="0 0 69 32">
         <path d="M11 29l45.795-28.616 1.59 2.545-45.795 28.615z"></path>
         <path d="M13 0l45.795 28.616-1.59 2.544-45.795-28.616z"></path>
      </symbol>
      <symbol id="icon-path" viewBox="0 0 32 32">
         <path
            d="M31.736 16.002c-8.628 0.139-15.595 7.108-15.734 15.736l-0.002 0.262-0.002-0.264c-0.139-8.628-7.108-15.595-15.736-15.734l-0.262-0.002 0.264-0.002c8.716-0.141 15.736-7.25 15.736-15.998 0 8.748 7.021 15.856 15.736 15.998l0.264 0.002-0.264 0.002z">
         </path>
      </symbol>
      <symbol id="icon-ellipse" viewBox="0 0 32 32">
         <path d="M32 16c0 8.837-7.163 16-16 16s-16-7.163-16-16c0-8.837 7.163-16 16-16s16 7.163 16 16z"></path>
      </symbol>
      <symbol id="icon-features1" viewBox="0 0 32 32">
         <path fill="#fe446f" style="fill: var(--color1, #fe446f)"
            d="M23.334 0h-14.667c-4.786 0-8.666 3.88-8.666 8.666v14.667c0 4.786 3.88 8.666 8.666 8.666h14.667c4.786 0 8.666-3.88 8.666-8.666v-14.667c0-4.786-3.88-8.666-8.666-8.666z">
         </path>
         <path fill="#fff" style="fill: var(--color2, #fff)"
            d="M16.444 14.222v3.556c0 0.736-0.597 1.333-1.333 1.334h-0.965c-0.189 0.523-0.68 0.889-1.258 0.889-0.737 0-1.334-0.597-1.334-1.334s0.597-1.334 1.334-1.334c0.577 0 1.069 0.367 1.255 0.88l0.003 0.009h0.965c0.245 0 0.444-0.199 0.444-0.444v0-3.556c0-0.736 0.597-1.333 1.333-1.333h1.334v-1.333l2.222 1.778-2.222 1.778v-1.333h-1.334c-0.245 0-0.444 0.199-0.444 0.444v0z">
         </path>
      </symbol>
      <symbol id="icon-features2" viewBox="0 0 32 32">
         <path fill="#24C4D5" style="fill: var(--color1, #24C4D5)"
            d="M23.334 0h-14.667c-4.786 0-8.666 3.88-8.666 8.666v14.667c0 4.786 3.88 8.666 8.666 8.666h14.667c4.786 0 8.666-3.88 8.666-8.666v-14.667c0-4.786-3.88-8.666-8.666-8.666z">
         </path>
         <path fill="#fff" style="fill: var(--color2, #fff)"
            d="M16.444 14.222v3.556c0 0.736-0.597 1.333-1.333 1.334h-0.965c-0.189 0.523-0.68 0.889-1.258 0.889-0.737 0-1.334-0.597-1.334-1.334s0.597-1.334 1.334-1.334c0.577 0 1.069 0.367 1.255 0.88l0.003 0.009h0.965c0.245 0 0.444-0.199 0.444-0.444v0-3.556c0-0.736 0.597-1.333 1.333-1.333h1.334v-1.333l2.222 1.778-2.222 1.778v-1.333h-1.334c-0.245 0-0.444 0.199-0.444 0.444v0z">
         </path>
      </symbol>
      <symbol id="icon-features3" viewBox="0 0 32 32">
         <path fill="#7F4BDC" style="fill: var(--color1, #7F4BDC)"
            d="M23.334 0h-14.667c-4.786 0-8.666 3.88-8.666 8.666v14.667c0 4.786 3.88 8.666 8.666 8.666h14.667c4.786 0 8.666-3.88 8.666-8.666v-14.667c0-4.786-3.88-8.666-8.666-8.666z">
         </path>
         <path fill="#fff" style="fill: var(--color2, #fff)"
            d="M16.444 14.222v3.556c0 0.736-0.597 1.333-1.333 1.334h-0.965c-0.189 0.523-0.68 0.889-1.258 0.889-0.737 0-1.334-0.597-1.334-1.334s0.597-1.334 1.334-1.334c0.577 0 1.069 0.367 1.255 0.88l0.003 0.009h0.965c0.245 0 0.444-0.199 0.444-0.444v0-3.556c0-0.736 0.597-1.333 1.333-1.333h1.334v-1.333l2.222 1.778-2.222 1.778v-1.333h-1.334c-0.245 0-0.444 0.199-0.444 0.444v0z">
         </path>
      </symbol>
      <symbol id="icon-features4" viewBox="0 0 32 32">
         <path fill="#ED6A32" style="fill: var(--color1, #ED6A32)"
            d="M23.334 0h-14.667c-4.786 0-8.666 3.88-8.666 8.666v14.667c0 4.786 3.88 8.666 8.666 8.666h14.667c4.786 0 8.666-3.88 8.666-8.666v-14.667c0-4.786-3.88-8.666-8.666-8.666z">
         </path>
         <path fill="#fff" style="fill: var(--color2, #fff)"
            d="M16.444 14.222v3.556c0 0.736-0.597 1.333-1.333 1.334h-0.965c-0.189 0.523-0.68 0.889-1.258 0.889-0.737 0-1.334-0.597-1.334-1.334s0.597-1.334 1.334-1.334c0.577 0 1.069 0.367 1.255 0.88l0.003 0.009h0.965c0.245 0 0.444-0.199 0.444-0.444v0-3.556c0-0.736 0.597-1.333 1.333-1.333h1.334v-1.333l2.222 1.778-2.222 1.778v-1.333h-1.334c-0.245 0-0.444 0.199-0.444 0.444v0z">
         </path>
      </symbol>
      <symbol id="icon-possibilities" viewBox="0 0 32 32">
         <path fill="#fff" style="fill: var(--color1, #fff)"
            d="M16.25 26.5c5.661 0 10.25-4.589 10.25-10.25s-4.589-10.25-10.25-10.25c-5.661 0-10.25 4.589-10.25 10.25s4.589 10.25 10.25 10.25z">
         </path>
         <path fill="#ed6a32" style="fill: var(--color2, #ed6a32)"
            d="M16 0c8.837 0 16 7.163 16 16s-7.163 16-16 16-16-7.163-16-16 7.163-16 16-16zM16.078 8.565c-0 4.106-3.293 7.442-7.382 7.512l-0.007 0-0.124 0.001 0.122 0.002c4.053 0.068 7.32 3.335 7.389 7.381l0 0.007 0.001 0.124 0.002-0.123c0.069-4.052 3.336-7.319 7.381-7.389l0.131-0.002h-0.124c-4.096-0.070-7.39-3.407-7.39-7.513 0-0 0-0 0-0v0z">
         </path>
         <path fill="#000" style="fill: var(--color3, #000)" opacity="0.04"
            d="M16 0c8.837 0 16 7.163 16 16s-7.163 16-16 16-16-7.163-16-16 7.163-16 16-16zM16.078 8.565c-0 4.106-3.293 7.442-7.382 7.512l-0.007 0-0.124 0.001 0.122 0.002c4.053 0.068 7.32 3.335 7.389 7.381l0 0.007 0.001 0.124 0.002-0.123c0.069-4.052 3.336-7.319 7.381-7.389l0.131-0.002h-0.124c-4.096-0.070-7.39-3.407-7.39-7.513 0-0 0-0 0-0v0z">
         </path>
      </symbol>
      <symbol id="icon-arrow" viewBox="0 0 62 32">
         <path fill="none" stroke="#fff" style="stroke: var(--color1, #fff)" stroke-linejoin="miter"
            stroke-linecap="butt" stroke-miterlimit="4" stroke-width="4.7059"
            d="M0 16h56.471M45.176 2.824l13.176 13.176-13.176 13.176"></path>
      </symbol>
      <symbol id="icon-arrow2" viewBox="0 0 62 32">
         <path fill="none" stroke="#0d0e17" style="stroke: var(--color1, #0d0e17)" stroke-linejoin="miter"
            stroke-linecap="butt" stroke-miterlimit="4" stroke-width="4.7059"
            d="M0 16h56.471M45.176 2.824l13.176 13.176-13.176 13.176"></path>
      </symbol>
      <symbol id="icon-facebook" viewBox="0 0 32 32">
         <path fill="#0d0e17" style="fill: var(--color1, #0d0e17)"
            d="M31.776 15.888c0-8.775-7.114-15.888-15.888-15.888-8.775 0-15.888 7.114-15.888 15.888 0 7.929 5.81 14.503 13.406 15.695v-11.102h-4.034v-4.592h4.034v-3.5c0-3.982 2.372-6.182 6.001-6.182 1.738 0 3.556 0.31 3.556 0.31v3.91h-2.003c-1.973 0-2.59 1.225-2.59 2.483v2.978h4.406l-0.704 4.593h-3.701v11.102c7.596-1.192 13.406-7.765 13.406-15.695z">
         </path>
         <path fill="#fff" style="fill: var(--color2, #fff)"
            d="M22.073 20.48l0.705-4.592h-4.406v-2.978c0-1.257 0.615-2.483 2.589-2.483h2.003v-3.91s-1.817-0.311-3.556-0.311c-3.629 0-6.001 2.2-6.001 6.182v3.5h-4.034v4.593h4.034v11.102c1.645 0.258 3.32 0.258 4.965 0v-11.102h3.702z">
         </path>
      </symbol>
      <symbol id="icon-instagram" viewBox="0 0 33 32">
         <path
            d="M16.149 2.861c4.245 0 4.747 0.019 6.416 0.093 1.552 0.069 2.39 0.329 2.949 0.546 0.738 0.286 1.272 0.633 1.825 1.186 0.514 0.499 0.918 1.109 1.174 1.791l0.011 0.034c0.217 0.558 0.478 1.402 0.546 2.947 0.074 1.676 0.093 2.178 0.093 6.418 0 4.245-0.018 4.748-0.093 6.416-0.068 1.552-0.329 2.39-0.546 2.948-0.268 0.715-0.672 1.325-1.184 1.824l-0.001 0.001c-0.499 0.514-1.109 0.918-1.791 1.175l-0.034 0.011c-0.559 0.217-1.403 0.478-2.948 0.546-1.675 0.074-2.178 0.093-6.417 0.093-4.245 0-4.748-0.019-6.417-0.093-1.552-0.069-2.389-0.329-2.948-0.546-0.716-0.268-1.325-0.672-1.824-1.185l-0.001-0.001c-0.514-0.499-0.918-1.108-1.174-1.79l-0.011-0.034c-0.217-0.559-0.478-1.403-0.546-2.948-0.075-1.676-0.094-2.178-0.094-6.418 0-4.245 0.019-4.748 0.094-6.416 0.068-1.552 0.328-2.39 0.546-2.948 0.286-0.738 0.633-1.273 1.186-1.825 0.499-0.514 1.109-0.919 1.791-1.175l0.034-0.011c0.558-0.217 1.403-0.478 2.948-0.546 1.669-0.074 2.172-0.093 6.416-0.093zM16.149 0c-4.313 0-4.853 0.019-6.548 0.093-1.689 0.075-2.849 0.348-3.854 0.738-1.049 0.41-1.936 0.95-2.818 1.838-0.888 0.881-1.428 1.768-1.838 2.811-0.391 1.012-0.664 2.166-0.738 3.854-0.074 1.701-0.093 2.24-0.093 6.554s0.019 4.853 0.094 6.548c0.074 1.688 0.347 2.848 0.738 3.854 0.409 1.049 0.949 1.936 1.837 2.818 0.773 0.787 1.711 1.41 2.758 1.813l0.053 0.018c1.012 0.391 2.166 0.665 3.854 0.738 1.694 0.075 2.234 0.094 6.548 0.094s4.853-0.019 6.548-0.094c1.689-0.074 2.849-0.347 3.854-0.738 1.101-0.42 2.039-1.043 2.811-1.829l0.001-0.001c0.788-0.773 1.41-1.711 1.813-2.759l0.018-0.053c0.391-1.012 0.665-2.166 0.738-3.854 0.075-1.694 0.094-2.234 0.094-6.548s-0.019-4.853-0.094-6.548c-0.074-1.688-0.347-2.849-0.738-3.854-0.404-1.108-1.025-2.053-1.817-2.823l-0.002-0.002c-0.773-0.787-1.711-1.41-2.758-1.812l-0.053-0.018c-1.012-0.391-2.166-0.665-3.855-0.739-1.7-0.080-2.239-0.099-6.553-0.099z">
         </path>
         <path
            d="M16.149 7.727c-4.506 0-8.162 3.655-8.162 8.161s3.655 8.162 8.162 8.162c4.505 0 8.161-3.655 8.161-8.162 0-4.505-3.655-8.161-8.161-8.161zM16.149 21.182c-2.884-0.052-5.202-2.402-5.202-5.294s2.318-5.242 5.197-5.294l0.005-0c2.884 0.052 5.202 2.402 5.202 5.294s-2.318 5.242-5.197 5.294l-0.005 0zM26.539 7.404c0 0 0 0.001 0 0.001 0 1.053-0.853 1.906-1.906 1.906s-1.906-0.853-1.906-1.906c0-1.053 0.853-1.906 1.906-1.906 0 0 0.001 0 0.001 0h-0c1.051 0.002 1.903 0.854 1.905 1.905v0z">
         </path>
      </symbol>
      <symbol id="icon-twitter" viewBox="0 0 33 32">
         <path
            d="M10.515 28.798c11.991 0 18.55-9.935 18.55-18.55 0-0.282 0-0.563-0.019-0.843 1.281-0.933 2.36-2.052 3.223-3.328l0.030-0.047c-1.091 0.497-2.356 0.858-3.682 1.019l-0.062 0.006c1.348-0.816 2.361-2.069 2.853-3.559l0.013-0.046c-1.192 0.719-2.578 1.268-4.056 1.568l-0.084 0.014c-1.193-1.266-2.881-2.054-4.753-2.054-3.604 0-6.526 2.922-6.526 6.526 0 0.523 0.062 1.032 0.178 1.52l-0.009-0.044c-5.431-0.28-10.208-2.861-13.411-6.778l-0.026-0.033c-0.555 0.939-0.883 2.070-0.883 3.277 0 2.253 1.142 4.239 2.878 5.411l0.023 0.015c-1.092-0.033-2.107-0.331-2.992-0.832l0.032 0.017v0.082c0 3.145 2.226 5.769 5.189 6.384l0.042 0.007c-0.513 0.146-1.103 0.229-1.712 0.229-0.436 0-0.862-0.043-1.273-0.125l0.041 0.007c0.859 2.61 3.25 4.471 6.084 4.527l0.006 0c-2.202 1.744-5.020 2.797-8.084 2.797-0.551 0-1.094-0.034-1.627-0.1l0.064 0.006c2.818 1.833 6.266 2.924 9.969 2.924 0.009 0 0.018 0 0.026-0h-0.001z">
         </path>
      </symbol>
      <symbol id="icon-linkedIn" viewBox="0 0 33 32">
         <path
            d="M30.214 0h-27.085c-1.295 0-2.345 1.051-2.345 2.346v0 27.085c0 1.295 1.050 2.345 2.345 2.345h27.085c1.296 0 2.346-1.050 2.346-2.346v-27.085c-0-1.295-1.051-2.345-2.346-2.345v0zM10.255 27.069h-4.778v-15.174h4.778v15.174zM7.862 9.792c-1.508-0.009-2.727-1.233-2.727-2.743 0-1.515 1.228-2.743 2.743-2.743s2.743 1.228 2.743 2.743c0 0.001 0 0.002 0 0.003v-0c0 0.011 0 0.024 0 0.037 0 1.493-1.21 2.704-2.704 2.704-0.019 0-0.039-0-0.058-0.001l0.003 0zM27.865 27.083h-4.775v-8.29c0-2.445-1.040-3.2-2.381-3.2-1.416 0-2.806 1.068-2.806 3.262v8.229h-4.778v-15.178h4.594v2.103h0.062c0.461-0.933 2.077-2.529 4.542-2.529 2.666 0 5.546 1.582 5.546 6.216l-0.002 9.387z">
         </path>
      </symbol>
      <symbol id="icon-youtube" viewBox="0 0 32 32">
         <path fill="#0d0e17" style="fill: var(--color1, #0d0e17)"
            d="M31.367 8.189c-0.375-1.378-1.435-2.443-2.781-2.82l-0.028-0.007c-2.485-0.668-12.414-0.668-12.414-0.668s-9.93 0-12.414 0.668c-1.375 0.383-2.435 1.448-2.804 2.799l-0.007 0.028c-0.665 2.494-0.665 7.698-0.665 7.698s0 5.204 0.665 7.699c0.375 1.379 1.434 2.444 2.781 2.821l0.028 0.007c2.485 0.668 12.414 0.668 12.414 0.668s9.93 0 12.414-0.668c1.375-0.384 2.434-1.449 2.803-2.799l0.007-0.028c0.665-2.495 0.665-7.699 0.665-7.699s0-5.203-0.665-7.698z">
         </path>
         <path fill="#fff" style="fill: var(--color2, #fff)" d="M12.894 20.613v-9.45l8.305 4.725-8.305 4.724z"></path>
      </symbol>
      <symbol id="icon-logo-footer" viewBox="0 0 169 32">
         <path fill="#f4f4f4" style="fill: var(--color1, #f4f4f4)" d="M0 0.219h30.72v8.37h-30.72v-8.37z"></path>
         <path fill="#ed6a32" style="fill: var(--color2, #ed6a32)"
            d="M15.386 32l-15.338-17.253v-14.528l15.338 17.253v14.528zM15.386 17.472v14.528l15.334-17.253v-14.528l-15.334 17.253z">
         </path>
         <path fill="#0d0e17" style="fill: var(--color3, #0d0e17)"
            d="M45.243 20.698c-0.005 0-0.011 0-0.017 0-0.143 0-0.275-0.052-0.376-0.138l0.001 0.001c-0.086-0.101-0.138-0.232-0.138-0.376 0-0.005 0-0.011 0-0.016l-0 0.001v-5.437l-5.553-9.4-0.046-0.138c-0.015-0.045-0.023-0.098-0.023-0.152 0-0.003 0-0.007 0-0.010v0c0-0.123 0.046-0.23 0.138-0.323 0.081-0.085 0.195-0.138 0.321-0.138 0.001 0 0.001 0 0.002 0h1.198c0.138 0 0.261 0.038 0.369 0.115 0.108 0.061 0.184 0.154 0.23 0.276l4.493 7.465 4.493-7.465c0.066-0.111 0.15-0.203 0.251-0.275l0.003-0.002c0.108-0.077 0.23-0.115 0.369-0.115h1.175c0.138 0 0.253 0.046 0.346 0.138 0.085 0.081 0.138 0.195 0.138 0.321 0 0.001 0 0.001 0 0.002v-0c0 0.002 0 0.004 0 0.007 0 0.11-0.035 0.211-0.093 0.294l0.001-0.002-5.53 9.4v5.437c0 0.154-0.054 0.284-0.161 0.392-0.092 0.092-0.223 0.138-0.392 0.138h-1.198zM57.88 20.928c-1.167 0-2.143-0.221-2.926-0.667-0.768-0.434-1.381-1.062-1.785-1.819l-0.012-0.024c-0.415-0.799-0.645-1.705-0.691-2.719-0.015-0.269-0.023-0.584-0.023-0.901 0-0.032 0-0.063 0-0.095l-0 0.005c0-0.415 0.008-0.745 0.023-0.991 0.046-1.029 0.276-1.935 0.691-2.719 0.429-0.778 1.048-1.405 1.797-1.831l0.023-0.012c0.783-0.445 1.751-0.668 2.903-0.668s2.12 0.223 2.903 0.668c0.783 0.445 1.382 1.060 1.797 1.843 0.43 0.783 0.668 1.69 0.714 2.719 0.015 0.246 0.023 0.576 0.023 0.991 0 0.399-0.008 0.73-0.023 0.991-0.046 1.014-0.276 1.92-0.691 2.719-0.416 0.781-1.029 1.409-1.775 1.831l-0.022 0.012c-0.783 0.445-1.759 0.668-2.926 0.668zM57.88 19.155c0.952 0 1.713-0.3 2.281-0.899 0.568-0.614 0.876-1.505 0.922-2.673 0.015-0.23 0.023-0.522 0.023-0.876s-0.008-0.645-0.023-0.876c-0.046-1.167-0.353-2.051-0.922-2.65-0.568-0.614-1.329-0.922-2.281-0.922s-1.72 0.307-2.304 0.922c-0.568 0.599-0.868 1.482-0.899 2.65-0.015 0.23-0.023 0.522-0.023 0.876s0.008 0.645 0.023 0.876c0.031 1.167 0.33 2.058 0.899 2.673 0.584 0.599 1.352 0.899 2.304 0.899zM66.639 20.699c-0.004 0-0.009 0-0.014 0-0.144 0-0.276-0.052-0.377-0.139l0.001 0.001c-0.086-0.101-0.138-0.232-0.138-0.376 0-0.005 0-0.011 0-0.016l-0 0.001v-15.299c-0-0.007-0.001-0.015-0.001-0.023 0-0.134 0.053-0.256 0.139-0.346l-0 0c0.097-0.1 0.233-0.161 0.382-0.161 0.003 0 0.007 0 0.010 0h1.081c0.17 0 0.3 0.054 0.392 0.161 0.086 0.090 0.139 0.211 0.139 0.345 0 0.008-0 0.016-0.001 0.024l0-0.001v15.299c0 0.154-0.046 0.284-0.138 0.392-0.092 0.092-0.221 0.138-0.392 0.138h-1.083zM72.128 20.699c-0.005 0-0.010 0-0.015 0-0.144 0-0.276-0.052-0.377-0.139l0.001 0.001c-0.086-0.101-0.138-0.232-0.138-0.376 0-0.005 0-0.011 0-0.016l-0 0.001v-15.299c-0-0.007-0.001-0.015-0.001-0.023 0-0.134 0.053-0.256 0.139-0.346l-0 0c0.097-0.1 0.233-0.161 0.382-0.161 0.003 0 0.007 0 0.010 0h1.082c0.169 0 0.298 0.054 0.392 0.161 0.085 0.089 0.138 0.211 0.138 0.344 0 0.009-0 0.017-0.001 0.026l0-0.001v15.299c0 0.154-0.045 0.284-0.138 0.392-0.092 0.092-0.221 0.138-0.39 0.138h-1.083zM77.614 20.699c-0.005 0-0.010 0-0.015 0-0.144 0-0.276-0.052-0.377-0.139l0.001 0.001c-0.086-0.101-0.138-0.232-0.138-0.376 0-0.005 0-0.011 0-0.016l-0 0.001v-15.299c-0-0.007-0.001-0.015-0.001-0.023 0-0.134 0.053-0.256 0.139-0.346l-0 0c0.097-0.1 0.233-0.161 0.382-0.161 0.003 0 0.007 0 0.010 0h1.082c0.169 0 0.3 0.054 0.392 0.161 0.086 0.090 0.139 0.211 0.139 0.345 0 0.008-0 0.016-0.001 0.024l0-0.001v15.299c0 0.154-0.046 0.284-0.138 0.392-0.092 0.092-0.223 0.138-0.392 0.138h-1.083zM87.457 20.929c-1.169 0-2.144-0.223-2.927-0.668-0.768-0.434-1.381-1.062-1.785-1.819l-0.012-0.024c-0.415-0.799-0.645-1.705-0.691-2.719-0.015-0.269-0.023-0.584-0.023-0.901 0-0.032 0-0.063 0-0.095l-0 0.005c0-0.415 0.008-0.745 0.023-0.991 0.046-1.029 0.276-1.935 0.691-2.719 0.429-0.778 1.048-1.405 1.797-1.831l0.023-0.012c0.783-0.445 1.751-0.668 2.903-0.668s2.12 0.223 2.903 0.668c0.783 0.445 1.382 1.060 1.797 1.843 0.43 0.783 0.668 1.69 0.714 2.719 0.015 0.246 0.023 0.576 0.023 0.991 0 0.399-0.008 0.73-0.023 0.991-0.046 1.014-0.276 1.92-0.691 2.719-0.416 0.781-1.029 1.409-1.775 1.831l-0.022 0.012c-0.783 0.445-1.759 0.668-2.926 0.668zM87.457 19.155c0.951 0 1.711-0.3 2.28-0.899 0.568-0.614 0.876-1.505 0.922-2.673 0.015-0.23 0.023-0.522 0.023-0.876s-0.008-0.645-0.023-0.876c-0.046-1.167-0.353-2.051-0.922-2.65-0.568-0.614-1.329-0.922-2.281-0.922s-1.72 0.307-2.304 0.922c-0.568 0.599-0.868 1.482-0.899 2.65-0.015 0.23-0.023 0.522-0.023 0.876s0.008 0.645 0.023 0.876c0.031 1.167 0.33 2.058 0.899 2.673 0.584 0.599 1.352 0.899 2.304 0.899zM107.020 20.929c-1.459 0-2.719-0.238-3.779-0.714-1.044-0.492-1.859-1.198-2.442-2.12-0.568-0.937-0.883-2.074-0.945-3.41-0.015-0.631-0.024-1.374-0.024-2.12s0.009-1.489 0.026-2.23l-0.002 0.11c0.061-1.306 0.384-2.412 0.968-3.318s1.405-1.597 2.465-2.074c1.060-0.476 2.304-0.714 3.732-0.714 1.152 0 2.173 0.146 3.064 0.438 0.891 0.276 1.636 0.653 2.235 1.129 0.614 0.476 1.075 0.998 1.382 1.567 0.323 0.568 0.492 1.129 0.507 1.682 0.002 0.015 0.004 0.033 0.004 0.051 0 0.119-0.055 0.225-0.141 0.294l-0.001 0.001c-0.085 0.085-0.203 0.138-0.332 0.138-0.005 0-0.009-0-0.014-0h-3.362c-0.013 0.001-0.029 0.001-0.044 0.001-0.125 0-0.245-0.026-0.353-0.072l0.006 0.002c-0.084-0.070-0.153-0.154-0.205-0.249l-0.002-0.005c-0.135-0.273-0.297-0.508-0.486-0.717l0.002 0.003c-0.228-0.281-0.513-0.507-0.838-0.662l-0.014-0.006c-0.353-0.184-0.822-0.276-1.405-0.276-0.876 0-1.567 0.23-2.074 0.691-0.492 0.461-0.76 1.198-0.806 2.212-0.022 0.598-0.035 1.3-0.035 2.004s0.013 1.407 0.037 2.106l-0.003-0.101c0.046 1.075 0.33 1.851 0.852 2.327s1.213 0.714 2.074 0.714c0.584 0 1.098-0.1 1.544-0.3 0.461-0.2 0.822-0.507 1.083-0.922 0.261-0.43 0.392-0.975 0.392-1.636v-0.438h-2.166c-0.004 0-0.008 0-0.012 0-0.164 0-0.313-0.061-0.427-0.162l0.001 0.001c-0.1-0.113-0.161-0.262-0.161-0.426 0-0.004 0-0.008 0-0.013v0.001-1.705c0-0.169 0.054-0.307 0.161-0.415 0.109-0.114 0.262-0.184 0.432-0.184 0.002 0 0.004 0 0.006 0h5.806c0.005-0 0.010-0 0.015-0 0.16 0 0.303 0.071 0.399 0.184l0.001 0.001c0.1 0.101 0.162 0.241 0.162 0.394 0 0.007-0 0.014-0 0.021l0-0.001v2.627c0 1.321-0.3 2.45-0.899 3.387s-1.452 1.659-2.557 2.166c-1.091 0.492-2.365 0.737-3.825 0.737zM117.151 20.699c-0.006 0-0.013 0-0.020 0-0.154 0-0.293-0.062-0.394-0.162l0 0c-0.1-0.101-0.162-0.241-0.162-0.394 0-0.007 0-0.014 0-0.021l-0 0.001v-10.83c0-0.154 0.054-0.284 0.161-0.392 0.097-0.113 0.24-0.185 0.4-0.185 0.005 0 0.011 0 0.016 0l-0.001-0h2.65c0.005-0 0.010-0 0.015-0 0.16 0 0.303 0.071 0.399 0.184l0.001 0.001c0.1 0.097 0.161 0.232 0.161 0.382 0 0.003-0 0.007-0 0.010v-0.001 0.922c0.415-0.476 0.906-0.845 1.475-1.106 0.556-0.248 1.206-0.392 1.889-0.392 0.025 0 0.049 0 0.073 0.001l-0.004-0h1.014c0.154 0 0.284 0.054 0.392 0.161 0.113 0.097 0.185 0.24 0.185 0.4 0 0.005-0 0.011-0 0.016l0-0.001v2.373c0 0.154-0.061 0.292-0.184 0.415-0.097 0.1-0.233 0.161-0.382 0.161-0.003 0-0.007-0-0.010-0h-2.234c-0.63 0-1.121 0.177-1.475 0.53-0.338 0.338-0.507 0.822-0.507 1.452v5.898c0 0.005 0 0.010 0 0.015 0 0.16-0.071 0.303-0.184 0.399l-0.001 0.001c-0.101 0.1-0.241 0.162-0.394 0.162-0.007 0-0.014-0-0.021-0l0.001 0h-2.857zM132.5 20.929c-1.29 0-2.381-0.207-3.272-0.622-0.876-0.415-1.551-1.006-2.028-1.774-0.461-0.783-0.722-1.713-0.783-2.788-0.015-0.307-0.023-0.653-0.023-1.037 0-0.399 0.008-0.745 0.023-1.037 0.061-1.091 0.338-2.020 0.829-2.788s1.175-1.359 2.051-1.774c0.891-0.415 1.958-0.622 3.203-0.622 1.26 0 2.327 0.207 3.203 0.622 0.891 0.415 1.582 1.006 2.074 1.774s0.768 1.697 0.829 2.788c0.015 0.292 0.023 0.637 0.023 1.037 0 0.384-0.008 0.73-0.023 1.037-0.061 1.075-0.33 2.004-0.806 2.788-0.461 0.768-1.137 1.359-2.028 1.774-0.876 0.415-1.966 0.622-3.272 0.622zM132.5 18.118c0.691 0 1.19-0.207 1.498-0.622 0.323-0.415 0.507-1.037 0.553-1.866 0.015-0.23 0.023-0.538 0.023-0.922s-0.008-0.691-0.023-0.922c-0.046-0.814-0.23-1.428-0.553-1.843-0.307-0.43-0.806-0.645-1.498-0.645-0.676 0-1.175 0.215-1.498 0.645-0.323 0.415-0.499 1.029-0.53 1.843-0.015 0.23-0.023 0.538-0.023 0.922s0.008 0.691 0.023 0.922c0.031 0.829 0.207 1.452 0.53 1.866s0.822 0.622 1.498 0.622zM145.18 20.929c-0.876 0-1.659-0.2-2.35-0.599-0.676-0.399-1.206-0.983-1.59-1.751-0.384-0.783-0.576-1.736-0.576-2.857v-6.429c0-0.169 0.054-0.307 0.161-0.415 0.101-0.1 0.241-0.162 0.394-0.162 0.007 0 0.014 0 0.021 0l-0.001-0h2.88c0.169 0 0.307 0.054 0.415 0.161 0.1 0.101 0.162 0.241 0.162 0.394 0 0.007-0 0.014-0 0.021l0-0.001v6.29c0 1.505 0.676 2.258 2.028 2.258 0.63 0 1.129-0.192 1.498-0.576 0.384-0.399 0.576-0.96 0.576-1.682v-6.29c0-0.169 0.054-0.307 0.161-0.415 0.101-0.1 0.241-0.162 0.394-0.162 0.007 0 0.014 0 0.021 0l-0.001-0h2.88c0.169 0 0.307 0.054 0.415 0.161 0.1 0.101 0.162 0.241 0.162 0.394 0 0.007-0 0.014-0 0.021l0-0.001v10.829c0 0.169-0.054 0.307-0.161 0.415-0.101 0.1-0.241 0.162-0.394 0.162-0.007 0-0.014-0-0.021-0l0.001 0h-2.673c-0.16-0-0.306-0.061-0.415-0.162l0 0c-0.1-0.101-0.162-0.241-0.162-0.394 0-0.007 0-0.014 0-0.021l-0 0.001v-0.876c-0.4 0.549-0.929 0.981-1.542 1.257l-0.024 0.010c-0.63 0.276-1.382 0.415-2.258 0.415zM156.001 25.076c-0.006 0-0.013 0-0.020 0-0.154 0-0.293-0.062-0.394-0.162l0 0c-0.1-0.101-0.162-0.241-0.162-0.394 0-0.007 0-0.014 0-0.021l-0 0.001v-15.208c0-0.169 0.054-0.307 0.161-0.415 0.101-0.1 0.241-0.162 0.394-0.162 0.007 0 0.014 0 0.021 0l-0.001-0h2.604c0.154 0 0.284 0.054 0.392 0.161 0.113 0.097 0.185 0.24 0.185 0.4 0 0.005-0 0.011-0 0.016l0-0.001v0.852c0.373-0.489 0.843-0.885 1.383-1.164l0.023-0.011c0.584-0.323 1.306-0.484 2.166-0.484 0.768 0 1.444 0.123 2.028 0.369 0.584 0.23 1.083 0.576 1.498 1.037s0.737 1.021 0.968 1.682c0.246 0.66 0.384 1.421 0.415 2.281 0.015 0.307 0.023 0.591 0.023 0.852s-0.008 0.545-0.023 0.852c-0.020 0.805-0.162 1.571-0.408 2.289l0.016-0.054c-0.23 0.66-0.553 1.221-0.968 1.682s-0.922 0.822-1.521 1.083c-0.584 0.246-1.26 0.369-2.028 0.369-0.753 0-1.413-0.131-1.981-0.392-0.556-0.279-1.019-0.668-1.375-1.142l-0.007-0.010v5.115c0 0.169-0.054 0.307-0.161 0.415-0.101 0.1-0.241 0.162-0.394 0.162-0.007 0-0.014-0-0.021-0l0.001 0h-2.811zM161.508 17.842c0.522 0 0.929-0.108 1.221-0.323s0.499-0.507 0.622-0.876c0.138-0.369 0.223-0.776 0.253-1.221 0.015-0.214 0.023-0.463 0.023-0.714s-0.008-0.501-0.025-0.748l0.002 0.034c-0.027-0.445-0.118-0.862-0.263-1.251l0.010 0.030c-0.115-0.359-0.332-0.659-0.618-0.872l-0.005-0.003c-0.292-0.215-0.699-0.323-1.221-0.323-0.507 0-0.914 0.115-1.221 0.346-0.307 0.215-0.53 0.499-0.668 0.852-0.135 0.341-0.218 0.735-0.23 1.147l-0 0.005c-0.015 0.258-0.023 0.56-0.023 0.864s0.008 0.606 0.025 0.906l-0.002-0.042c0.015 0.384 0.1 0.745 0.253 1.083 0.154 0.323 0.384 0.591 0.691 0.806 0.307 0.2 0.699 0.3 1.175 0.3z">
         </path>
      </symbol>
      <symbol id="icon-vertical-line" viewBox="0 0 1 32">
         <path fill="none" stroke="#ed6a32" style="stroke: var(--color1, #ed6a32)" stroke-linejoin="miter"
            stroke-linecap="butt" stroke-miterlimit="4" stroke-width="0.6275" d="M0.314 0v32"></path>
      </symbol>
      <symbol id="icon-sun" viewBox="0 0 32 32">
         <path fill="#ed6a32" style="fill: var(--color1, #ed6a32)"
            d="M20.498 14.499c-0.829 0-1.501-0.672-1.501-1.501s0.672-1.501 1.501-1.501v0c0.829 0 1.501 0.672 1.501 1.501s-0.672 1.501-1.501 1.501v0zM17.001 21.499c-1.105 0-2.001-0.896-2.001-2.001s0.896-2.001 2.001-2.001v0c1.105 0 2.001 0.896 2.001 2.001s-0.896 2.001-2.001 2.001v0zM12.687 15.499c-0.012 0-0.027 0.001-0.042 0.001-0.969 0-1.754-0.785-1.754-1.754s0.785-1.754 1.754-1.754c0.011 0 0.023 0 0.034 0l-0.002-0c0.001 0 0.003 0 0.005 0 0.969 0 1.754 0.785 1.754 1.754 0 0.967-0.782 1.751-1.749 1.754h-0zM29.999 13.999c-0.736 0.002-1.378 0.399-1.726 0.991l-0.005 0.009h-1.802c-0.212-2.182-1.068-4.132-2.371-5.695l0.014 0.017 1.289-1.29c0.154 0.043 0.331 0.067 0.514 0.067 1.102 0 1.996-0.894 1.996-1.996s-0.894-1.996-1.996-1.996c-1.102 0-1.996 0.894-1.996 1.996 0 0.183 0.025 0.36 0.070 0.528l-0.003-0.014-1.288 1.29c-1.547-1.29-3.497-2.146-5.637-2.354l-0.043-0.003v-1.802c0.603-0.352 1.002-0.997 1.002-1.734 0-1.105-0.896-2.002-2.002-2.002s-2.002 0.896-2.002 2.002c0 0.737 0.399 1.381 0.992 1.729l0.009 0.005v1.802c-2.183 0.212-4.133 1.067-5.697 2.371l0.017-0.014-1.288-1.29c0.043-0.154 0.067-0.331 0.067-0.514 0-1.103-0.894-1.997-1.997-1.997s-1.997 0.894-1.997 1.997c0 1.103 0.894 1.997 1.997 1.997 0.183 0 0.36-0.025 0.528-0.070l-0.014 0.003 1.289 1.288c-1.29 1.547-2.145 3.497-2.353 5.637l-0.003 0.043h-1.803c-0.352-0.603-0.996-1.001-1.733-1.001-1.105 0-2.001 0.896-2.001 2.001s0.896 2.001 2.001 2.001c0.737 0 1.381-0.398 1.728-0.991l0.005-0.009h1.803c0.212 2.183 1.067 4.133 2.37 5.697l-0.014-0.017-1.288 1.288c-0.154-0.043-0.332-0.067-0.515-0.067-1.102 0-1.996 0.894-1.996 1.996s0.894 1.996 1.996 1.996c1.102 0 1.996-0.894 1.996-1.996 0-0.182-0.024-0.359-0.070-0.526l0.003 0.014 1.29-1.29c1.546 1.29 3.496 2.145 5.636 2.354l0.043 0.003v1.802c-0.602 0.352-1 0.996-1 1.732 0 1.105 0.896 2.001 2.001 2.001s2.001-0.896 2.001-2.001c0-0.736-0.398-1.38-0.991-1.727l-0.009-0.005v-1.802c2.182-0.212 4.132-1.068 5.695-2.371l-0.017 0.014 1.289 1.29c-0.043 0.154-0.067 0.331-0.067 0.514 0 1.103 0.894 1.997 1.997 1.997s1.997-0.894 1.997-1.997c0-1.103-0.894-1.997-1.997-1.997-0.183 0-0.36 0.025-0.528 0.070l0.014-0.003-1.29-1.288c1.29-1.547 2.145-3.497 2.354-5.637l0.003-0.043h1.802c0.352 0.603 0.997 1.002 1.734 1.002 1.105 0 2.002-0.896 2.002-2.002s-0.896-2.002-2.002-2.002c-0.001 0-0.003 0-0.004 0h0z">
         </path>
      </symbol>
      <symbol id="icon-statue" viewBox="0 0 32 32">
         <path fill="#ed6a32" style="fill: var(--color1, #ed6a32)"
            d="M20.473 9.714v4.836c0.485 0.072 0.96 0.203 1.413 0.391l1.819-3.175 1.611 0.953-1.802 3.143 1.060 0.665 3.257-1.657 0.834 1.696-3.448 1.753-0.639 1.301c-1.496-0.98-3.242-1.501-5.027-1.501s-3.531 0.522-5.027 1.501l-0.636-1.301-1.83-0.928-0.060-2.133 2.533 1.287 1.060-0.665-1.802-3.143 1.611-0.953 1.788 3.15c0.453-0.189 0.928-0.32 1.413-0.391v-4.836l1.872 0.007zM23.221 20.942l0.131 0.075v2.628c-0.006 0.575-0.14 1.141-0.394 1.656s-0.619 0.966-1.069 1.32c-0.45 0.353-0.974 0.6-1.533 0.721s-1.137 0.114-1.692-0.020l-0.145-0.039-0.025-0.036h-0.032c-0.755-0.226-1.42-0.685-1.903-1.312s-0.757-1.39-0.786-2.183v-2.734c1.131-0.653 2.41-1.003 3.714-1.016s2.589 0.311 3.733 0.941zM7.162 0l0.798 1.596c0.691 1.424 1.059 2.984 1.077 4.569v0.416h2.434v1.881h-1.848l0.533 11.499 0.671-0.583 1.060 3.94c0.222 0.774 0.614 1.489 1.145 2.092s1.19 1.079 1.928 1.392c0.428 0.616 0.973 1.14 1.604 1.543l0.138 0.085-5.122 3.556h-3.335l-3.253-7.502 1.48-1.301h-0.032v-11.573c-0.602-0.259-1.123-0.678-1.507-1.212s-0.615-1.164-0.67-1.821v-0.107h-1.561v-1.881h2.582v-0.213c-0.008-1.588 0.332-3.157 0.996-4.597l0.085-0.171 0.795-1.607zM23.97 27.239c0.712 0.002 1.413 0.171 2.049 0.494l0.134 0.071 0.321 0.178c0.702 0.385 1.29 0.949 1.707 1.636s0.647 1.471 0.667 2.275v0.107h-14.021l4.013-2.812c0.223 0.029 0.447 0.043 0.671 0.043 0.79 0 1.571-0.168 2.291-0.494s1.364-0.802 1.888-1.397l0.088-0.1h0.191z">
         </path>
      </symbol>
      <symbol id="icon-research" viewBox="0 0 32 32">
         <path fill="#ed6a32" style="fill: var(--color1, #ed6a32)"
            d="M15.967 8.511h4.257c0.283 0 0.555 0.112 0.756 0.312s0.314 0.471 0.315 0.754v4.262c0.003 0.19-0.044 0.377-0.137 0.543s-0.228 0.303-0.392 0.4c-0.163 0.096-0.349 0.146-0.538 0.146s-0.375-0.051-0.538-0.147c-0.163-0.096-0.298-0.234-0.39-0.4s-0.138-0.353-0.133-0.542v-1.693l-4.577 4.569c-0.2 0.197-0.469 0.307-0.749 0.307s-0.549-0.11-0.749-0.307l-1.378-1.378-3.502 3.507c-1 1.071-2.577-0.498-1.511-1.502l4.262-4.258c0.098-0.098 0.215-0.177 0.343-0.23s0.266-0.081 0.405-0.081c0.139 0 0.277 0.027 0.405 0.081s0.245 0.132 0.343 0.23l1.378 1.382 3.826-3.827h-1.698c-0.146 0.009-0.291-0.011-0.429-0.060s-0.263-0.126-0.369-0.226-0.191-0.22-0.249-0.354c-0.058-0.134-0.088-0.278-0.088-0.424s0.030-0.29 0.088-0.424 0.143-0.254 0.249-0.354c0.106-0.1 0.232-0.177 0.369-0.226s0.283-0.070 0.429-0.060zM13.847 0c-2.233-0.005-4.434 0.53-6.415 1.56s-3.684 2.524-4.962 4.355-2.095 3.944-2.38 6.159c-0.285 2.215-0.030 4.466 0.744 6.561s2.042 3.971 3.698 5.47c1.656 1.498 3.649 2.573 5.811 3.134s4.426 0.589 6.601 0.084c2.175-0.505 4.196-1.529 5.889-2.984l1.209 1.209-0.751 0.751c-0.099 0.099-0.178 0.216-0.232 0.345s-0.081 0.268-0.081 0.408 0.028 0.279 0.081 0.408c0.054 0.129 0.133 0.247 0.232 0.345l3.191 3.191c0.313 0.327 0.691 0.585 1.11 0.757s0.869 0.255 1.321 0.243c0.805-0.045 1.566-0.383 2.139-0.95s0.919-1.325 0.972-2.13c0.011-0.452-0.072-0.902-0.245-1.321s-0.429-0.797-0.755-1.11l-3.195-3.2c-0.099-0.099-0.216-0.177-0.345-0.23s-0.267-0.081-0.406-0.081c-0.139 0-0.278 0.027-0.406 0.081s-0.246 0.132-0.345 0.23l-0.755 0.756-1.209-1.209c1.727-2.008 2.842-4.469 3.21-7.092s-0.025-5.296-1.133-7.702c-1.108-2.406-2.884-4.442-5.116-5.867s-4.827-2.178-7.475-2.17z">
         </path>
      </symbol>
      <symbol id="icon-cube" viewBox="0 0 32 32">
         <path fill="#7f4bdc" style="fill: var(--color1, #7f4bdc)"
            d="M16.214 0.026h0.085l7.228 2.4-7.527 2.502-7.522-2.48 7.232-2.4c0.162-0.056 0.338-0.063 0.504-0.022zM8.478 4.445l6.59 2.186v9.885l-6.59-2.205v-9.866zM23.536 4.445v9.866l-6.582 2.186v-9.884l6.582-2.169zM7.541 15.645l7.526 2.498-7.526 2.502-7.541-2.52 7.541-2.48zM24.495 15.645l7.531 2.498-7.531 2.502-7.54-2.52 7.54-2.48zM0 20.102l6.59 2.186v9.711l-5.948-1.974c-0.351-0.12-0.606-0.433-0.637-0.809l-0-0.003v-9.112h-0.005zM15.058 20.102v9.711l-6.581 2.186v-9.711l6.581-2.186zM32.014 20.102v9.035c-0 0.386-0.235 0.718-0.57 0.86l-0.006 0.002-0.066 0.026-5.939 1.974v-9.711l6.582-2.186zM16.954 20.102l6.586 2.186v9.711l-6.586-2.186v-9.712z">
         </path>
      </symbol>
      <symbol id="icon-nft" viewBox="0 0 32 32">
         <path fill="#7f4bdc" style="fill: var(--color1, #7f4bdc)"
            d="M7.566 11.179c-0.057-0.116-0.152-0.21-0.269-0.265s-0.25-0.069-0.376-0.039c-0.126 0.030-0.238 0.102-0.317 0.204s-0.122 0.228-0.12 0.357v9.147c0.013 0.143 0.078 0.276 0.184 0.372s0.244 0.15 0.388 0.15c0.144 0 0.282-0.054 0.388-0.15s0.172-0.23 0.184-0.372v-6.729l3.499 6.982c0.048 0.095 0.121 0.174 0.211 0.23s0.194 0.085 0.301 0.085c0.044 0.004 0.089 0.004 0.134 0 0.126-0.029 0.239-0.1 0.319-0.2s0.125-0.226 0.126-0.355v-9.16c0.007-0.079-0.003-0.159-0.028-0.234s-0.067-0.145-0.12-0.203c-0.054-0.059-0.119-0.106-0.192-0.138s-0.152-0.049-0.231-0.049-0.158 0.017-0.231 0.049c-0.073 0.032-0.138 0.079-0.192 0.138s-0.095 0.128-0.12 0.203c-0.026 0.075-0.035 0.155-0.028 0.234v6.724l-3.508-6.982zM19.078 10.863h-4.576c-0.075 0-0.15 0.015-0.219 0.044s-0.132 0.071-0.185 0.124c-0.053 0.053-0.095 0.116-0.123 0.186s-0.043 0.144-0.042 0.219v9.147c0.013 0.143 0.078 0.276 0.184 0.372s0.244 0.15 0.388 0.15c0.144 0 0.282-0.054 0.388-0.15s0.172-0.23 0.184-0.372v-4h2.284c0.143-0.013 0.276-0.078 0.373-0.184s0.151-0.244 0.151-0.387c0-0.143-0.054-0.281-0.151-0.387s-0.23-0.171-0.373-0.184h-2.293v-3.44h4.007c0.079 0.007 0.159-0.003 0.235-0.028s0.145-0.066 0.204-0.12c0.059-0.054 0.106-0.119 0.138-0.192s0.049-0.151 0.049-0.231c0-0.080-0.017-0.158-0.049-0.231s-0.079-0.138-0.138-0.192c-0.059-0.054-0.128-0.095-0.204-0.12s-0.155-0.035-0.235-0.028l0.004 0.004zM25.377 10.863h-4.576c-0.143 0.013-0.276 0.078-0.373 0.184s-0.151 0.244-0.151 0.387c0 0.143 0.054 0.281 0.151 0.387s0.23 0.171 0.373 0.184h1.718v8.578c0 0.152 0.060 0.298 0.168 0.405s0.254 0.168 0.406 0.168c0.152 0 0.298-0.060 0.406-0.168s0.168-0.253 0.168-0.405v-8.582h1.705c0.079 0.007 0.159-0.003 0.235-0.028s0.145-0.066 0.204-0.12c0.059-0.054 0.106-0.119 0.138-0.192s0.049-0.151 0.049-0.231c0-0.080-0.017-0.158-0.049-0.231s-0.079-0.138-0.138-0.192c-0.059-0.054-0.128-0.095-0.204-0.12s-0.155-0.035-0.235-0.028l0.004 0.004zM14.8 3.228c0.432-0.243 0.92-0.37 1.416-0.37s0.983 0.127 1.416 0.37l9.162 5.178c0.44 0.248 0.806 0.607 1.060 1.042s0.39 0.93 0.391 1.433v10.258c-0.002 0.503-0.137 0.997-0.392 1.431s-0.62 0.793-1.059 1.040l-9.162 5.178c-0.432 0.243-0.92 0.37-1.416 0.37s-0.983-0.127-1.416-0.37l-9.162-5.178c-0.438-0.248-0.803-0.607-1.057-1.041s-0.389-0.928-0.389-1.43v-10.258c0.001-0.504 0.135-0.998 0.389-1.433s0.619-0.795 1.058-1.043l9.162-5.178zM18.196 2.237c-0.604-0.339-1.286-0.517-1.979-0.517s-1.374 0.178-1.979 0.517l-9.162 5.173c-0.615 0.348-1.127 0.853-1.483 1.463s-0.545 1.303-0.547 2.009v10.258c0.002 0.705 0.191 1.397 0.548 2.006s0.868 1.113 1.482 1.461l9.166 5.173c0.604 0.339 1.286 0.517 1.979 0.517s1.374-0.178 1.979-0.517l9.162-5.173c0.614-0.348 1.126-0.852 1.482-1.461s0.545-1.301 0.548-2.006v-10.258c-0.001-0.706-0.19-1.399-0.547-2.009s-0.868-1.114-1.483-1.463l-9.166-5.173zM13.389 0.743c0.862-0.487 1.836-0.743 2.827-0.743s1.965 0.256 2.827 0.743l9.162 5.178c0.88 0.497 1.612 1.218 2.121 2.089s0.779 1.862 0.781 2.871v10.258c-0.002 1.009-0.272 1.999-0.782 2.87s-1.241 1.592-2.121 2.090l-9.162 5.173c-0.864 0.479-1.836 0.73-2.825 0.73s-1.96-0.251-2.825-0.73l-9.162-5.173c-0.878-0.498-1.609-1.219-2.118-2.090s-0.778-1.861-0.78-2.87v-10.258c0.001-1.009 0.27-1.999 0.779-2.87s1.24-1.592 2.119-2.090l9.157-5.178z">
         </path>
      </symbol>
      <symbol id="icon-card" viewBox="0 0 32 32">
         <path fill="#7f4bdc" style="fill: var(--color1, #7f4bdc)"
            d="M32 10.002v-0.271c0-0.568-0.112-1.13-0.329-1.654s-0.535-1.001-0.936-1.402c-0.401-0.401-0.877-0.72-1.402-0.937s-1.086-0.329-1.653-0.329h-23.36c-1.146 0-2.245 0.455-3.055 1.266s-1.265 1.91-1.265 3.057v0.271c0 0.199 0.079 0.39 0.22 0.531s0.332 0.22 0.531 0.22h30.498c0.199 0 0.39-0.079 0.531-0.22s0.22-0.332 0.22-0.531zM8 19.395h-2.004c-0.191 0.032-0.386 0.021-0.573-0.031s-0.359-0.143-0.507-0.268-0.266-0.281-0.347-0.457c-0.081-0.176-0.123-0.367-0.123-0.56s0.042-0.385 0.123-0.56c0.081-0.176 0.2-0.332 0.347-0.457s0.321-0.217 0.507-0.269c0.186-0.052 0.382-0.062 0.573-0.031h2.004c0.312 0.052 0.595 0.212 0.8 0.453s0.317 0.547 0.317 0.863c0 0.316-0.112 0.622-0.317 0.863s-0.488 0.402-0.8 0.453zM0 14.134v8.285c0 1.146 0.455 2.246 1.265 3.057s1.909 1.266 3.055 1.266h23.36c0.567 0 1.129-0.112 1.653-0.329s1-0.536 1.402-0.937c0.401-0.401 0.719-0.878 0.936-1.402s0.329-1.087 0.329-1.654v-8.285c0-0.199-0.079-0.39-0.22-0.531s-0.332-0.22-0.531-0.22h-30.498c-0.199 0-0.39 0.079-0.531 0.22s-0.22 0.332-0.22 0.531z">
         </path>
      </symbol>
      <symbol id="icon-light" viewBox="0 0 32 32">
         <path fill="#7f4bdc" style="fill: var(--color1, #7f4bdc)"
            d="M25.644 7.973l2.022-2.022c0.215-0.215 0.335-0.505 0.335-0.809s-0.12-0.594-0.335-0.809c-0.214-0.215-0.505-0.335-0.809-0.335s-0.594 0.121-0.809 0.335l-2.022 2.022c-0.106 0.106-0.19 0.232-0.248 0.371s-0.086 0.288-0.086 0.438c0.001 0.303 0.12 0.593 0.333 0.809 0.218 0.208 0.508 0.323 0.809 0.323s0.591-0.116 0.809-0.323zM30.858 14.858h-2.858c-0.303 0-0.593 0.12-0.808 0.335s-0.335 0.505-0.335 0.808 0.12 0.593 0.335 0.808c0.214 0.214 0.505 0.335 0.808 0.335h2.858c0.15 0 0.299-0.030 0.437-0.087s0.264-0.142 0.371-0.248c0.106-0.106 0.19-0.232 0.248-0.371s0.087-0.287 0.087-0.437-0.030-0.299-0.087-0.437c-0.057-0.139-0.142-0.264-0.248-0.371s-0.232-0.19-0.371-0.248c-0.139-0.057-0.287-0.087-0.437-0.087zM25.644 24.027c-0.106-0.106-0.232-0.19-0.371-0.248s-0.288-0.087-0.438-0.087c-0.15 0-0.299 0.030-0.438 0.087s-0.265 0.142-0.371 0.248c-0.106 0.106-0.19 0.232-0.248 0.371s-0.087 0.288-0.087 0.438c0 0.15 0.030 0.299 0.087 0.438s0.142 0.265 0.248 0.371l2.022 2.022c0.218 0.208 0.508 0.323 0.809 0.323s0.591-0.116 0.809-0.323c0.214-0.215 0.334-0.506 0.334-0.809s-0.12-0.594-0.334-0.809l-2.022-2.022zM7.458 23.733c-0.193-0.052-0.397-0.053-0.591-0.001s-0.37 0.153-0.512 0.295l-2.022 2.022c-0.214 0.215-0.334 0.506-0.334 0.809s0.12 0.594 0.334 0.809c0.218 0.208 0.508 0.323 0.809 0.323s0.591-0.116 0.809-0.323l2.022-2.022c0.142-0.142 0.244-0.319 0.295-0.513s0.051-0.398-0.001-0.592c-0.052-0.194-0.155-0.37-0.297-0.512s-0.319-0.243-0.513-0.295zM5.142 16c0-0.15-0.030-0.299-0.087-0.437s-0.142-0.264-0.248-0.371c-0.106-0.106-0.232-0.19-0.371-0.248s-0.287-0.087-0.437-0.087h-2.858c-0.303 0-0.593 0.12-0.808 0.335s-0.335 0.505-0.335 0.808 0.12 0.593 0.335 0.808c0.214 0.214 0.505 0.335 0.808 0.335h2.858c0.15 0 0.299-0.030 0.437-0.087s0.264-0.142 0.371-0.248c0.106-0.106 0.19-0.232 0.248-0.371s0.087-0.287 0.087-0.437zM6.356 7.973c0.218 0.208 0.508 0.323 0.809 0.323s0.591-0.116 0.809-0.323c0.213-0.216 0.332-0.506 0.333-0.809 0.001-0.15-0.029-0.299-0.086-0.438s-0.141-0.265-0.248-0.371l-2.022-2.022c-0.215-0.215-0.505-0.335-0.809-0.335s-0.594 0.121-0.809 0.335c-0.215 0.215-0.335 0.505-0.335 0.809s0.121 0.594 0.335 0.809l2.022 2.022zM16 5.142c0.15 0 0.299-0.030 0.437-0.087s0.264-0.142 0.371-0.248c0.106-0.106 0.19-0.232 0.248-0.371s0.087-0.287 0.087-0.437v-2.858c0-0.303-0.12-0.593-0.335-0.808s-0.505-0.335-0.808-0.335c-0.303 0-0.593 0.12-0.808 0.335s-0.335 0.505-0.335 0.808v2.858c0 0.303 0.12 0.593 0.335 0.808s0.505 0.335 0.808 0.335zM13.142 29.142c0 0.152 0.060 0.298 0.168 0.405s0.253 0.168 0.405 0.168h4.569c0.152 0 0.298-0.060 0.405-0.168s0.168-0.253 0.168-0.405v-1.716h-5.716v1.716zM16 32c0.354-0 0.7-0.11 0.99-0.315s0.509-0.493 0.628-0.827h-3.236c0.119 0.334 0.338 0.623 0.628 0.827s0.635 0.314 0.99 0.315zM23.378 15.111c-0.202-1.651-0.951-3.186-2.127-4.362s-2.712-1.925-4.362-2.127c-0.295-0.036-0.592-0.054-0.889-0.053-1.471 0.001-2.909 0.439-4.131 1.258s-2.173 1.983-2.733 3.344c-0.559 1.361-0.702 2.857-0.41 4.299s1.006 2.765 2.051 3.8c0.561 0.539 1.009 1.184 1.318 1.897s0.475 1.481 0.486 2.258v0.858h6.853v-0.862c0.004-0.763 0.16-1.518 0.46-2.22s0.735-1.337 1.283-1.869c0.827-0.794 1.458-1.77 1.844-2.85s0.515-2.234 0.379-3.373h-0.022z">
         </path>
      </symbol>
      <symbol id="icon-search" viewBox="0 0 32 32">
         <path
            d="M24.997 8.6v10.316h-3.436v-10.316h3.436zM20.415 6.307v12.609h-3.44v-12.609h3.44zM15.829 10.889v8.027h-3.44v-8.027h3.44zM18.695 3.44c-1.928 0.002-3.811 0.575-5.413 1.647s-2.85 2.595-3.586 4.377c-0.736 1.781-0.928 3.741-0.55 5.631s1.307 3.626 2.671 4.988c1.364 1.362 3.101 2.289 4.992 2.664s3.85 0.181 5.63-0.558c1.78-0.739 3.302-1.989 4.372-3.592s1.641-3.488 1.64-5.415c-0.004-2.585-1.033-5.063-2.862-6.89s-4.308-2.853-6.894-2.853zM18.695 0c2.055-0.003 4.082 0.475 5.92 1.394s3.435 2.256 4.665 3.903c1.23 1.647 2.057 3.558 2.417 5.582s0.241 4.103-0.345 6.072c-0.587 1.97-1.626 3.775-3.034 5.271s-3.147 2.644-5.077 3.349-3.999 0.95-6.040 0.714c-2.042-0.236-4-0.946-5.718-2.073l-7.791 7.787-3.24-3.24 7.693-7.693c-1.467-1.958-2.36-4.285-2.578-6.722s0.246-4.886 1.342-7.073c1.096-2.187 2.779-4.026 4.861-5.311s4.481-1.963 6.927-1.961z">
         </path>
      </symbol>
      <symbol id="icon-lines" viewBox="0 0 32 32">
         <path fill="#7f4bdc" style="fill: var(--color1, #7f4bdc)"
            d="M7.836 0.276l1.333 1.333-2.151 2.151 2.151 2.147-1.333 1.333-2.147-2.151-2.151 2.151-1.333-1.333 2.147-2.147-2.129-2.16 1.333-1.333 2.151 2.147 2.129-2.138zM32 0v5.627h-5.689v1.969c1.062 0.231 2.014 0.819 2.696 1.665s1.055 1.901 1.055 2.988c0.019 0.628-0.088 1.253-0.314 1.838s-0.569 1.119-1.006 1.57c-0.437 0.451-0.96 0.809-1.539 1.054s-1.2 0.371-1.828 0.371c-0.628 0-1.249-0.126-1.828-0.371s-1.101-0.603-1.539-1.054c-0.437-0.451-0.779-0.985-1.006-1.57s-0.334-1.211-0.314-1.838c0-1.066 0.357-2.101 1.015-2.939s1.577-1.433 2.612-1.687l0.12-0.027v-7.596h7.564zM20.964 19.111l1.333 1.333-2.151 2.151 2.151 2.147-1.333 1.333-2.151-2.151-2.151 2.151-1.333-1.333 2.147-2.147-2.147-2.151 1.333-1.333 2.151 2.147 2.151-2.147zM15.724 8.796l3.476 3.476-3.476 3.476-1.333-1.333 1.213-1.213h-5.24c-1.22 0.002-2.392 0.479-3.267 1.33s-1.383 2.010-1.418 3.23v4.889c1.057 0.218 2.007 0.793 2.689 1.63s1.056 1.882 1.057 2.962c0.004 1.249-0.485 2.449-1.36 3.34s-2.066 1.401-3.315 1.42c-1.256-0.013-2.457-0.517-3.345-1.406s-1.393-2.089-1.406-3.346c0.014-1.065 0.386-2.094 1.056-2.922s1.599-1.406 2.637-1.643l0.12-0.027v-4.782c0.002-1.713 0.673-3.358 1.87-4.584s2.826-1.935 4.539-1.976h5.378l-1.213-1.209 1.338-1.311z">
         </path>
      </symbol>
      <symbol id="icon-crm" viewBox="0 0 32 32">
         <path
            d="M23.813 26.925c-0.528-0.013-1.001-0.235-1.343-0.587l-0-0c-0.329-0.339-0.532-0.802-0.532-1.312 0-0.014 0-0.027 0-0.041l-0 0.002v-16.28c-0.001-0.027-0.002-0.060-0.002-0.092 0-0.496 0.198-0.947 0.519-1.276l-0 0c0.343-0.355 0.823-0.576 1.354-0.576 0.003 0 0.005 0 0.008 0h-0c0.534 0.001 1.015 0.221 1.36 0.576l0 0c0.32 0.332 0.518 0.785 0.518 1.284 0 0.030-0.001 0.059-0.002 0.089l0-0.004v16.28c0 0.011 0 0.023 0 0.035 0 0.512-0.204 0.977-0.535 1.317l0-0c-0.342 0.351-0.816 0.573-1.342 0.586l-0.002 0zM8.192 24.48c-0.527-0.011-1-0.23-1.342-0.579l-0-0c-0.332-0.339-0.537-0.803-0.537-1.316 0-0.011 0-0.021 0-0.032l-0 0.002v-9.248c-0.002-0.028-0.002-0.061-0.002-0.094 0-0.496 0.198-0.947 0.519-1.276l-0 0c0.342-0.355 0.822-0.575 1.353-0.575 0.003 0 0.005 0 0.008 0h-0c0.534 0.001 1.016 0.221 1.361 0.576l0 0c0.32 0.332 0.518 0.785 0.518 1.284 0 0.030-0.001 0.059-0.002 0.089l0-0.004v9.232c0 0.010 0 0.022 0 0.034 0 0.51-0.204 0.973-0.534 1.31l0-0c-0.342 0.35-0.815 0.57-1.34 0.58l-0.002 0v0.018zM17.432 1.934v28.133c0.002 0.031 0.003 0.068 0.003 0.104 0 0.468-0.177 0.894-0.467 1.216l0.001-0.002c-0.324 0.362-0.78 0.583-1.269 0.615-0.505-0.035-0.949-0.265-1.264-0.614l-0.002-0.002c-0.287-0.32-0.463-0.745-0.463-1.211 0-0.037 0.001-0.074 0.003-0.111l-0 0.005v-28.133c-0.002-0.032-0.003-0.069-0.003-0.107 0-0.466 0.175-0.891 0.464-1.212l-0.002 0.002c0.323-0.362 0.778-0.584 1.266-0.617 0.489 0.032 0.945 0.253 1.27 0.616 0.288 0.32 0.465 0.746 0.465 1.213 0 0.037-0.001 0.073-0.003 0.109l0-0.005z">
         </path>
      </symbol>
      <symbol id="icon-support" viewBox="0 0 32 32">
         <path fill="#fe446f" style="fill: var(--color1, #fe446f)"
            d="M16 0c2.7 0 4.889 2.189 4.889 4.889s-2.189 4.889-4.889 4.889v0c-2.7 0-4.889-2.189-4.889-4.889s2.189-4.889 4.889-4.889v0zM20.888 9.778c-0.379 2.388-2.423 4.191-4.888 4.191s-4.509-1.803-4.885-4.163l-0.004-0.028c1.238 1.28 2.97 2.075 4.889 2.075s3.651-0.795 4.887-2.073l0.002-0.002zM20.888 13.742c-0.381 2.386-2.425 4.187-4.888 4.187s-4.507-1.801-4.885-4.158l-0.004-0.028c1.236 1.283 2.97 2.079 4.889 2.079s3.652-0.797 4.887-2.077l0.002-0.002zM31.968 19.902c-0.043-0.175-0.13-0.326-0.248-0.445l0 0c-0.603-0.597-1.433-0.966-2.349-0.966s-1.746 0.369-2.349 0.967l-6.325 6.32c-0.171 0.168-0.404 0.273-0.662 0.276h-6.058c-0.003 0-0.007 0-0.011 0-0.504 0-0.918-0.391-0.953-0.886l-0-0.003c-0.001-0.012-0.001-0.026-0.001-0.040 0-0.516 0.418-0.934 0.934-0.934 0.002 0 0.004 0 0.006 0h4.035c0.004 0 0.009 0 0.014 0 1.123 0 2.033-0.909 2.035-2.031v-0c-0.027-1.081-0.91-1.946-1.995-1.946-0.005 0-0.010 0-0.015 0h-5.137c-0.007-0-0.015-0-0.023-0-2.707 0-4.904 2.184-4.924 4.886v5.967c0 0 0 0.001 0 0.001 0 0.515 0.418 0.933 0.933 0.933 0.005 0 0.010-0 0.015-0h11.163c0.248-0.002 0.486-0.098 0.662-0.271l11.014-10.924c0.168-0.17 0.273-0.405 0.273-0.663 0-0.082-0.010-0.161-0.030-0.237l0.001 0.007-0.004-0.009zM5.92 23.146c0-0.011 0-0.024 0-0.037 0-1.63-1.291-2.959-2.907-3.020l-0.006-0c-0.005-0-0.011-0-0.017-0-1.652 0-2.991 1.339-2.991 2.991 0 0.011 0 0.023 0 0.034v-0.002 5.951c-0 0.007-0 0.015-0 0.023 0 1.605 1.295 2.907 2.897 2.92h3.188c-0.101-0.279-0.16-0.602-0.16-0.938v-0l-0.004-7.92z">
         </path>
      </symbol>
      <symbol id="icon-rupor" viewBox="0 0 32 32">
         <path
            d="M30.269 11.726v5.257c0.56-0.198 1.024-0.551 1.354-1.008l0.006-0.008c0.323-0.448 0.516-1.007 0.516-1.612s-0.194-1.164-0.522-1.62l0.006 0.008c-0.335-0.465-0.799-0.818-1.34-1.010l-0.020-0.006zM9.58 9.691v9.345h-4.746c-0.043 0.001-0.093 0.002-0.144 0.002-1.269 0-2.42-0.502-3.266-1.318l0.001 0.001c-0.878-0.849-1.423-2.036-1.425-3.351v-0c0-0 0-0.001 0-0.001 0-1.315 0.546-2.503 1.423-3.349l0.001-0.001c0.843-0.815 1.992-1.317 3.259-1.317 0.052 0 0.105 0.001 0.157 0.003l-0.008-0 4.747-0.014zM27.455 2.222c0.24 0 0.472 0.091 0.646 0.256s0.279 0.39 0.291 0.629v22.464c0 0.002 0 0.005 0 0.007 0 0.385-0.236 0.716-0.572 0.854l-0.006 0.002c-0.105 0.045-0.228 0.070-0.356 0.070-0.001 0-0.003 0-0.004 0h0c-3.213 0-5.8-1.593-8.213-3.31l-0.338-0.239-0.164-0.12-0.334-0.243c-2.186-1.579-4.271-3.097-6.72-3.456l-0.231-0.030v-9.469c2.476-0.306 4.565-1.77 6.747-3.336l0.204-0.151 0.334-0.238 0.164-0.12 0.338-0.243c2.413-1.73 5-3.328 8.213-3.328zM10.518 20.89c0.253 0 0.506 0.018 0.755 0.053l0.182 0.027v8.318c0 0.239-0.091 0.47-0.257 0.643s-0.392 0.278-0.632 0.29h-3.813c-0.241 0-0.472-0.091-0.646-0.256-0.169-0.159-0.278-0.38-0.292-0.626l-0-0.002v-8.446h4.702z">
         </path>
      </symbol>
      <symbol id="icon-rocket" viewBox="0 0 32 32">
         <path
            d="M26.507 5.649c-0.603-0.602-1.436-0.974-2.356-0.974-1.839 0-3.33 1.488-3.336 3.326v0.001c0 0.001 0 0.001 0 0.002 0 1.379 0.84 2.563 2.037 3.066l0.022 0.008c0.377 0.16 0.815 0.253 1.275 0.253 1.381 0 2.565-0.838 3.073-2.034l0.008-0.022c0.161-0.376 0.254-0.814 0.254-1.274 0-0.919-0.373-1.75-0.976-2.352l-0-0zM7.528 20.161c0.112-0.107 0.294-0.355 0.782 0.137l3.516 3.506c0.502 0.501 0.253 0.683 0.142 0.79-2.818 2.818-3.622 2.099-8.444 4.513-0.925 0.444 0-2.725 1.644-5.645l0.138-0.248c0.644-1.162 1.381-2.164 2.228-3.061l-0.007 0.007zM12.706 8.285c6.715-6.168 15.39-10.233 18.306-7.322s-1.022 11.862-7.249 18.571c-0.003 0.001-0.007 0.001-0.011 0.001s-0.008-0-0.012-0.001l0 0-0.054 0.054c-0.127 0.11-0.207 0.271-0.207 0.45 0 0.071 0.012 0.139 0.035 0.202l-0.001-0.004 0.475 2.006c0.022 0.115 0.034 0.247 0.034 0.382 0 0.553-0.209 1.057-0.551 1.439l0.002-0.002-7.68 7.669c-0.422 0.422-0.845 0.288-0.938-0.302l-0.888-5.547c-0.008-0.071-0.012-0.154-0.012-0.238 0-0.616 0.232-1.178 0.614-1.602l-0.002 0.002c0.079-0.073 0.128-0.177 0.128-0.293s-0.049-0.22-0.128-0.293l-0-0-0.156-0.155-0.338-0.338-0.369-0.373-0.818-0.786-1.333-1.331-0.672-0.674-1.68-1.678c-0.234-0.238-0.462-0.466-0.693-0.693l-0.008-0.008c-0.072-0.076-0.174-0.123-0.287-0.123s-0.215 0.047-0.287 0.123l-0 0c-0.423 0.377-0.984 0.607-1.599 0.607-0.086 0-0.171-0.005-0.255-0.013l0.010 0.001-5.552-0.888c-0.59-0.093-0.728-0.514-0.306-0.936l7.68-7.668c0.382-0.341 0.888-0.549 1.443-0.549 0.136 0 0.268 0.012 0.397 0.036l-0.013-0.002 2.089 0.498c0.075 0.022 0.161 0.035 0.249 0.035 0.247 0 0.471-0.098 0.636-0.256l-0 0z">
         </path>
      </symbol>
      <symbol id="icon-list" viewBox="0 0 32 32">
         <path
            d="M29.666 22.666h-10c-1.288 0-2.333 1.044-2.333 2.333 0 0 0 0.001 0 0.001v-0 4.666c0 1.289 1.044 2.333 2.333 2.334h10c1.289 0 2.334-1.045 2.334-2.334v0-4.666c0-1.289-1.045-2.334-2.334-2.334v0zM29.666 10.666h-10c-1.288 0.003-2.331 1.046-2.333 2.333v4.667c0.002 1.288 1.045 2.331 2.333 2.334h10c1.288-0.002 2.331-1.046 2.334-2.333v-4.667c-0.002-1.288-1.046-2.331-2.333-2.334h-0zM2.334 32h10c1.288 0 2.333-1.044 2.333-2.333 0-0 0-0.001 0-0.001v0-16.666c-0.002-1.288-1.045-2.331-2.333-2.334h-10c-1.288 0.003-2.331 1.046-2.334 2.333v16.667c0 1.289 1.045 2.334 2.334 2.334v0zM29.666 0h-27.333c-1.288 0.002-2.331 1.046-2.334 2.333v3.333c0.002 1.288 1.046 2.331 2.333 2.334h27.333c1.288-0.002 2.331-1.046 2.334-2.333v-3.333c-0.002-1.288-1.046-2.331-2.333-2.334h-0z">
         </path>
      </symbol>
      <symbol id="icon-smile" viewBox="0 0 32 32">
         <path
            d="M25.035 13.925c-0.518 0-0.938-0.42-0.938-0.938 0-0 0-0.001 0-0.001v0c0.002-0.032 0.003-0.070 0.003-0.108 0-1.147-0.929-2.076-2.076-2.076s-2.076 0.929-2.076 2.076c0 0.038 0.001 0.076 0.003 0.113l-0-0.005c0 0.518-0.42 0.938-0.938 0.938s-0.938-0.42-0.938-0.938v0c-0.001-0.029-0.001-0.063-0.001-0.097 0-2.182 1.769-3.95 3.95-3.95s3.95 1.769 3.95 3.95c0 0.034-0 0.068-0.001 0.102l0-0.005c0 0.002 0 0.005 0 0.007 0 0.514-0.417 0.931-0.931 0.931-0.003 0-0.005 0-0.008-0h0zM25.405 19.325c-1.409 3.909-5.087 6.654-9.405 6.654s-7.996-2.744-9.383-6.584l-0.022-0.070c-0.034-0.093-0.053-0.2-0.053-0.311 0-0.52 0.422-0.942 0.942-0.942 0.409 0 0.757 0.26 0.887 0.624l0.002 0.007c1.149 3.171 4.135 5.395 7.64 5.395s6.491-2.224 7.622-5.338l0.018-0.056c0.132-0.37 0.48-0.631 0.889-0.631 0.52 0 0.942 0.422 0.942 0.942 0 0.111-0.019 0.218-0.055 0.318l0.002-0.007h-0.026zM6.026 12.986c-0.001-0.034-0.002-0.073-0.002-0.112 0-2.182 1.769-3.95 3.95-3.95s3.95 1.769 3.95 3.95c0 0.040-0.001 0.079-0.002 0.118l0-0.006c0 0.518-0.42 0.938-0.938 0.938s-0.938-0.42-0.938-0.938v0c0.002-0.032 0.003-0.070 0.003-0.108 0-1.147-0.929-2.076-2.076-2.076s-2.076 0.929-2.076 2.076c0 0.038 0.001 0.076 0.003 0.113l-0-0.005c0 0.518-0.42 0.938-0.938 0.938s-0.938-0.42-0.938-0.938v0zM27.315 4.685c-2.896-2.896-6.896-4.688-11.315-4.688-8.837 0-16 7.163-16 16s7.163 16 16 16c8.835 0 15.998-7.162 16-15.997v-0c0-0.014 0-0.030 0-0.047 0-4.404-1.791-8.389-4.684-11.268l-0.001-0.001z">
         </path>
      </symbol>
      <symbol id="icon-cube-2" viewBox="0 0 32 32">
         <path fill="#24c4d5" style="fill: var(--color1, #24c4d5)"
            d="M16.492 0.12l0.084 0.045 11.142 5.778c0.468 0.248 0.782 0.732 0.782 1.289 0 0.525-0.278 0.985-0.695 1.24l-0.006 0.004-0.075 0.045-11.147 5.814c-0.194 0.104-0.425 0.164-0.67 0.164-0.213 0-0.415-0.046-0.596-0.128l0.009 0.004-0.094-0.045-10.977-5.814c-0.464-0.246-0.774-0.727-0.774-1.279 0-0.262 0.070-0.508 0.192-0.72l-0.004 0.007c0.122-0.216 0.296-0.398 0.506-0.528l0.085-0.048 10.977-5.779c0.197-0.106 0.432-0.168 0.681-0.168 0.21 0 0.41 0.044 0.59 0.124l-0.009-0.004zM28.212 10.578c0.2-0.111 0.439-0.176 0.693-0.176 0.8 0 1.449 0.649 1.449 1.449 0 0.001 0 0.003 0 0.004v-0 12.888c0 0 0 0 0 0 0 0.538-0.292 1.007-0.726 1.259l-0.007 0.004-10.222 5.81c-0.206 0.119-0.453 0.189-0.716 0.189-0.802 0-1.452-0.649-1.453-1.451v-13.143c0-0.001 0-0.002 0-0.003 0-0.546 0.302-1.021 0.748-1.269l0.007-0.004 10.227-5.556zM3.864 10.534l0.085 0.044 10.222 5.556c0.43 0.235 0.723 0.67 0.755 1.177l0 0.004v13.232c-0.005 0.8-0.653 1.447-1.452 1.453h-0.001c-0.226-0.001-0.44-0.054-0.63-0.146l0.009 0.004-0.098-0.048-10.222-5.81c-0.416-0.241-0.698-0.671-0.729-1.169l-0-0.004v-12.973c-0-0.004-0-0.010-0-0.015 0-0.802 0.65-1.453 1.453-1.453 0.221 0 0.431 0.049 0.619 0.138l-0.009-0.004v0.014z">
         </path>
      </symbol>
      <symbol id="icon-plan" viewBox="0 0 32 32">
         <path fill="#24c4d5" style="fill: var(--color1, #24c4d5)"
            d="M7.384 16.8l5.066-5.334c0.29-0.266 0.673-0.41 1.067-0.4 0.393 0.009 0.736 0.218 0.931 0.529l0.003 0.005 3.2 4.134 4.666-4.267c0.208-0.141 0.465-0.226 0.742-0.226 0.737 0 1.334 0.597 1.334 1.334 0 0.344-0.13 0.657-0.343 0.893l0.001-0.001-5.734 5.334c-0.222 0.246-0.542 0.401-0.898 0.401-0.012 0-0.025-0-0.037-0.001l0.002 0h-0.133c-0.384-0.041-0.715-0.24-0.931-0.53l-0.003-0.004-3.066-4.133-4 4.133c-0.235 0.246-0.567 0.4-0.934 0.4s-0.698-0.153-0.933-0.399l-0-0c-0.218-0.248-0.351-0.575-0.351-0.933s0.133-0.685 0.352-0.935l-0.001 0.002zM4.184 26.134h4.266l-1.066 3.333c-0.054 0.172-0.086 0.369-0.086 0.574 0 1.080 0.873 1.956 1.952 1.96h0c0.858-0.010 1.585-0.557 1.863-1.32l0.004-0.014 1.466-4.533h6.4l1.467 4.533c0.282 0.777 1.009 1.324 1.865 1.334h0.001c1.079-0.004 1.952-0.88 1.952-1.96 0-0.205-0.031-0.402-0.090-0.587l0.004 0.014-1.066-3.333h4.533c2.044-0.044 3.69-1.689 3.734-3.729l0-0.004v-14.8c-0.043-2.044-1.689-3.69-3.729-3.734l-0.004-0h-7.734c0-2.136-1.731-3.867-3.867-3.867s-3.867 1.731-3.867 3.867h-8c-2.044 0.044-3.69 1.689-3.734 3.729l-0 0.004v14.8c0 0.001 0 0.003 0 0.005 0 2.059 1.669 3.729 3.729 3.729 0.002 0 0.003 0 0.005 0h-0z">
         </path>
      </symbol>
      <symbol id="icon-auditory" viewBox="0 0 32 32">
         <path
            d="M24.226 6.246c0-0.005 0-0.011 0-0.017 0-0.717-0.286-1.368-0.749-1.844l0.001 0.001c-0.467-0.476-1.115-0.774-1.832-0.781h-0.001c-3.422 0.144-3.422 5.142 0 5.286 0.719-0.007 1.368-0.306 1.833-0.783l0.001-0.001c0.484-0.496 0.754-1.165 0.749-1.861zM27.294 12.671c3.422 0.144 3.422 5.142 0 5.286-0.704-0.031-1.332-0.336-1.783-0.811l-0.001-0.001c-0.452-0.476-0.73-1.12-0.73-1.83 0-0.001 0-0.001 0-0.002v0c0-0.682 0.262-1.338 0.73-1.831 0.452-0.476 1.080-0.781 1.779-0.811l0.005-0zM16 12.672c3.426 0.144 3.426 5.142 0 5.286-0.704-0.031-1.332-0.336-1.783-0.811l-0.001-0.001c-0.452-0.476-0.73-1.12-0.73-1.83 0-0.001 0-0.001 0-0.002v0c0-0.682 0.262-1.338 0.73-1.831 0.452-0.476 1.080-0.781 1.779-0.811l0.005-0zM7.288 15.312c0 0.001 0 0.002 0 0.004 0 0.717-0.288 1.366-0.755 1.839l0-0c-0.466 0.471-1.112 0.762-1.826 0.762h-0c-0.714-0-1.36-0.292-1.825-0.762l-0-0c-0.468-0.472-0.757-1.123-0.757-1.84 0-0.001 0-0.001 0-0.002v0c-0.014-0.103-0.022-0.221-0.022-0.341 0-0.665 0.245-1.272 0.649-1.737l-0.003 0.003c0.477-0.551 1.177-0.897 1.958-0.897s1.481 0.346 1.955 0.894l0.003 0.003c0.402 0.46 0.647 1.066 0.647 1.729 0 0.122-0.008 0.242-0.024 0.36l0.002-0.014zM24.515 11.77c-0.499 0.412-0.904 0.918-1.191 1.494l-0.012 0.026c-0.296 0.591-0.469 1.287-0.469 2.024 0 1.327 0.562 2.523 1.461 3.363l0.003 0.002c-1.116 0.584-2.021 1.437-2.65 2.477l-0.017 0.030c-0.646-1.069-1.551-1.923-2.631-2.489l-0.037-0.017c0.47-0.436 0.846-0.966 1.099-1.561l0.011-0.030c0.225-0.524 0.356-1.135 0.356-1.776 0-0.736-0.173-1.432-0.48-2.049l0.012 0.027c-0.299-0.602-0.704-1.108-1.195-1.514l-0.008-0.006c0.786-0.612 1.786-0.981 2.873-0.982h0c1.038 0 2.048 0.344 2.873 0.982zM13.222 11.77c-0.499 0.412-0.904 0.918-1.19 1.494l-0.012 0.026c-0.295 0.59-0.468 1.286-0.468 2.022 0 1.328 0.563 2.525 1.463 3.364l0.003 0.003c-1.116 0.584-2.021 1.437-2.65 2.477l-0.017 0.030c-0.646-1.069-1.551-1.923-2.631-2.489l-0.037-0.017c0.469-0.436 0.845-0.966 1.098-1.561l0.011-0.030c0.224-0.524 0.355-1.133 0.355-1.772 0-0.738-0.174-1.435-0.482-2.053l0.012 0.027c-0.299-0.602-0.704-1.108-1.195-1.514l-0.008-0.006c0.786-0.612 1.787-0.981 2.874-0.981h0c1.038 0 2.048 0.344 2.874 0.982zM27.294 19.84c1.28 0.004 2.438 0.519 3.283 1.352l-0.001-0.001c0.85 0.838 1.388 1.991 1.424 3.269l0 0.007v2.403c0 0.301-0.114 0.59-0.318 0.808-0.204 0.22-0.482 0.352-0.779 0.371h-8.32v-3.452c0-1.309 0.527-2.496 1.381-3.358l-0 0c0.85-0.858 2.028-1.39 3.33-1.39h0v-0.010zM20.698 24.408v3.641h-9.404v-3.452c0.262-6.232 8.978-6.299 9.404-0.188zM9.404 24.408v3.641h-8.235c-0.298 0-0.584-0.115-0.8-0.321-0.21-0.2-0.346-0.476-0.365-0.783l-0-0.003v-2.345c0.249-6.232 8.978-6.299 9.4-0.188zM12.96 6.247c0-0.003 0-0.007 0-0.011 0-0.723-0.289-1.378-0.759-1.856l0 0c-0.471-0.477-1.124-0.773-1.846-0.774h-0c-3.426 0.144-3.426 5.142 0 5.286 0.719-0.008 1.366-0.307 1.832-0.783l0.001-0.001c0.484-0.496 0.754-1.166 0.75-1.861h0.022z">
         </path>
      </symbol>
      <symbol id="icon-hand" viewBox="0 0 32 32">
         <path fill="#24c4d5" style="fill: var(--color1, #24c4d5)"
            d="M24.409 12.858v6.73c0 2.674-7.026 2.822-8.444 2.822h-0.054c-1.524 0-8.382-0.17-8.382-2.822v-6.73l8.209 2.059c0.146 0.034 0.298 0.034 0.445 0l8.226-2.059zM15.746 3.631c0.146-0.034 0.298-0.034 0.445 0l15.062 3.761c0.409 0.107 0.706 0.473 0.706 0.909 0 0.001 0 0.002 0 0.004v-0c-0 0.436-0.297 0.804-0.7 0.911l-0.007 0.002-1.165 0.294v11.808l1.827 5.496c0.025 0.081 0.039 0.174 0.039 0.271 0 0.52-0.412 0.944-0.927 0.963l-0.002 0h-3.75c-0.46-0.016-0.837-0.353-0.914-0.794l-0.001-0.006c-0.025-0.145-0.016-0.294 0.026-0.434l1.826-5.496v-11.339l-12 3c-0.067 0.016-0.143 0.026-0.222 0.026s-0.156-0.009-0.229-0.027l0.007 0.001-15.062-3.762c-0.409-0.107-0.706-0.473-0.706-0.909 0-0.001 0-0.002 0-0.004v0c0.001-0.436 0.297-0.803 0.7-0.91l0.007-0.002 15.040-3.762z">
         </path>
      </symbol>
      <symbol id="icon-check" viewBox="0 0 32 32">
         <path fill="#24c4d5" style="fill: var(--color1, #24c4d5)"
            d="M10.066 14.871c0.29-0.29 0.691-0.47 1.134-0.47s0.844 0.18 1.134 0.47l2.066 2.066 5.266-5.266c0.288-0.282 0.683-0.455 1.118-0.455 0.885 0 1.602 0.717 1.602 1.602 0 0.434-0.173 0.828-0.453 1.116l0-0-6.378 6.4c-0.291 0.289-0.691 0.467-1.133 0.467s-0.843-0.178-1.133-0.467l-3.2-3.2c-0.295-0.291-0.478-0.695-0.478-1.142 0-0.436 0.174-0.831 0.456-1.12l-0 0zM3.814 20.506c0.302 0.301 0.488 0.717 0.488 1.177 0 0.011-0 0.022-0 0.034l0-0.002-0.075 4.36c-0 0.008-0 0.018-0 0.027 0 0.923 0.748 1.671 1.671 1.671 0.010 0 0.019-0 0.029-0l-0.001 0 4.36-0.076c0.009-0 0.020-0 0.031-0 0.46 0 0.876 0.187 1.177 0.489l3.325 3.325c0.303 0.303 0.721 0.49 1.182 0.49s0.88-0.187 1.182-0.49v0l3.324-3.325c0.301-0.302 0.717-0.488 1.177-0.488 0.012 0 0.023 0 0.035 0l4.358 0.075c0.008 0 0.017 0 0.026 0 0.923 0 1.672-0.749 1.672-1.672 0-0.009-0-0.019-0-0.028l0 0.001-0.076-4.36c-0-0.009-0-0.019-0-0.030 0-0.46 0.187-0.877 0.489-1.178l3.325-3.325c0.302-0.303 0.488-0.721 0.488-1.182s-0.187-0.879-0.489-1.182l-3.325-3.324c-0.302-0.301-0.488-0.717-0.488-1.177 0-0.011 0-0.023 0-0.034l-0 0.002 0.075-4.36c0-0.008 0-0.018 0-0.027 0-0.923-0.748-1.67-1.67-1.67-0.010 0-0.020 0-0.030 0l0.002-0-4.36 0.076c-0.009 0-0.020 0-0.030 0-0.46 0-0.877-0.187-1.178-0.489l-3.326-3.326c-0.303-0.303-0.721-0.49-1.182-0.49s-0.88 0.187-1.182 0.49l-3.324 3.325c-0.301 0.302-0.717 0.488-1.177 0.488-0.011 0-0.022-0-0.034-0l0.002 0-4.36-0.075c-0.008-0-0.018-0-0.027-0-0.923 0-1.671 0.748-1.671 1.671 0 0.010 0 0.019 0 0.029l-0-0.001 0.076 4.36c0 0.009 0 0.020 0 0.030 0 0.46-0.187 0.877-0.489 1.178l-3.325 3.326c-0.302 0.303-0.488 0.721-0.488 1.182s0.187 0.879 0.489 1.182l3.325 3.324z">
         </path>
      </symbol>
      <symbol id="icon-book" viewBox="0 0 32 32">
         <path
            d="M7.106 30.125c-1.147 0-2.076-0.929-2.076-2.076v0-0.106c0.061-1.1 0.967-1.968 2.076-1.969h20.151v4.151h-20.152zM10.119 6.026h12.050c0.016-0.001 0.035-0.002 0.055-0.002 0.518 0 0.938 0.42 0.938 0.938s-0.42 0.938-0.938 0.938c-0.019 0-0.038-0.001-0.057-0.002l0.003 0h-12.050c-0.016 0.001-0.036 0.002-0.055 0.002-0.518 0-0.938-0.42-0.938-0.938s0.42-0.938 0.938-0.938c0.019 0 0.038 0.001 0.057 0.002l-0.003-0zM28.192 0h-21.086c-2.182 0.002-3.95 1.77-3.952 3.951v24.097c0.002 2.182 1.771 3.951 3.954 3.952h21.084c0.001 0 0.003 0 0.005 0 0.515 0 0.933-0.418 0.933-0.933 0-0.002 0-0.003 0-0.005v0-30.125c0-0.001 0-0.003 0-0.005 0-0.515-0.418-0.933-0.933-0.933-0.002 0-0.003 0-0.005 0h0z">
         </path>
      </symbol>
      <symbol id="icon-together" viewBox="0 0 32 32">
         <path fill="#7f4bdc" style="fill: var(--color1, #7f4bdc)"
            d="M22.666 8h-2.666v4h2.666v-4zM17.334 5.334h-2.667v6.666h2.667v-6.666zM12 2.666h-2.666v9.334h2.666v-9.334zM26.666 0v13.334c-2.654 0.007-4.94 1.571-5.996 3.826l-0.017 0.041-0.058 0.134h-9.191c-1.023-2.321-3.273-3.927-5.906-4l-0.009-0h-0.155v-13.334h21.333zM5.334 16c0.017-0 0.037-0 0.057-0 2.209 0 4 1.791 4 4s-1.791 4-4 4c-0.020 0-0.040-0-0.060-0l0.003 0c-2.185-0.032-3.943-1.81-3.943-4s1.759-3.968 3.94-4l0.003-0zM26.666 16c2.209 0 4 1.791 4 4s-1.791 4-4 4v0c-2.209 0-4-1.791-4-4s1.791-4 4-4v0zM16 20c2.209 0 3.999 1.791 3.999 3.999s-1.791 3.999-3.999 3.999v0c-2.209 0-3.999-1.791-3.999-3.999s1.79-3.999 3.999-3.999v0zM18.666 29.334c0 0 0.001 0 0.001 0 1.473 0 2.666 1.194 2.666 2.666v0h-10.667c0-1.473 1.194-2.666 2.666-2.666 0 0 0.001 0 0.001 0h5.333zM29.334 25.334c1.473 0 2.666 1.194 2.666 2.666v0 4h-8c-0.010-1.93-1.043-3.617-2.585-4.547l-0.024-0.013c0.268-1.213 1.333-2.106 2.608-2.106 0 0 0.001 0 0.001 0h5.334zM8 25.334c0 0 0.001 0 0.001 0 1.274 0 2.34 0.894 2.604 2.089l0.003 0.018c-1.523 0.916-2.543 2.534-2.609 4.396l-0 0.009v0.155h-8v-4c0-0.001 0-0.001 0-0.002 0-1.438 1.139-2.611 2.564-2.664l0.005-0h5.431z">
         </path>
      </symbol>
      <symbol id="icon-brain" viewBox="0 0 32 32">
         <path
            d="M18.704 1.885c4.543 0.466 8.123 4.044 8.589 8.545l0.003 0.041h-5.698c-0.362-1.426-1.463-2.527-2.861-2.883l-0.027-0.006-0.005-5.698zM17.771 9.333c1.141 0 2.066 0.925 2.066 2.066s-0.925 2.066-2.066 2.066v0c-1.124-0.023-2.026-0.939-2.026-2.066s0.902-2.043 2.024-2.066l0.002-0zM16.834 0v7.582c-1.74 0.435-3.008 1.984-3.008 3.83 0 2.177 1.765 3.942 3.942 3.942 1.844 0 3.393-1.266 3.823-2.977l0.006-0.027h7.586c-0.217 2.636-1.303 4.984-2.967 6.791l0.007-0.008v12.888h-16.888v-5.528h-2.997v-5.752l-3.635-1.296 3.618-7v-1.022c0.002-5.995 4.604-10.915 10.468-11.42l0.043-0.003z">
         </path>
      </symbol>
      <symbol id="icon-horse" viewBox="0 0 32 32">
         <path fill="#24c4d5" style="fill: var(--color1, #24c4d5)"
            d="M19.856 8.167c-0 0-0 0-0 0-0.518 0-0.938 0.42-0.938 0.938s0.42 0.938 0.938 0.938h0c0.518 0 0.938-0.42 0.938-0.938s-0.42-0.938-0.938-0.938v0zM14.592 2.070c-3.037 1.325-5.471 3.562-7.010 6.36l-0.038 0.075c-1.45 2.72-2.058 6.062-1.778 9.707l-1.591-0.68c-0.338-0.149-0.57-0.482-0.57-0.868 0-0.015 0-0.031 0.001-0.046l-0 0.002c0.080-2.892 0.708-5.616 1.783-8.102l-0.055 0.142c0.846-1.931 2.14-3.531 3.755-4.719l0.032-0.022c1.384-0.981 3.066-1.632 4.887-1.806l0.041-0.003 0.542-0.040zM20.74 0.292c0.171-0.179 0.412-0.291 0.679-0.291 0.473 0 0.864 0.351 0.928 0.806l0.001 0.005 0.583 4.213 5.333 5.872c0.356 0.386 0.574 0.903 0.574 1.472 0 0.518-0.181 0.994-0.484 1.367l0.003-0.004-1.258 1.57c-0.402 0.505-1.016 0.825-1.705 0.825-0.294 0-0.574-0.058-0.83-0.164l0.014 0.005-3.902-1.565c-0.126-0.052-0.273-0.082-0.426-0.082-0.635 0-1.15 0.515-1.15 1.15 0 0.249 0.079 0.48 0.214 0.668l-0.002-0.003 2.222 3.111c0.112 0.16 0.173 0.351 0.174 0.546v1.876h-13.498c-0.215-0.842-0.398-1.869-0.511-2.916l-0.009-0.102c-0.37-3.515 0.15-6.72 1.506-9.262 1.755-3.289 4.858-5.538 9.226-6.667l2.316-2.43zM6.108 24.5v1.876h18.125v-1.875c-0.002-0.516-0.421-0.934-0.938-0.934 0 0 0 0 0 0h-16.254c-0.508 0-0.92 0.405-0.933 0.91l-0 0.001v0.022zM25.793 28.252h-21.248c-0.001 0-0.002 0-0.002 0-0.517 0-0.936 0.419-0.936 0.936 0 0.001 0 0.001 0 0.002v-0 1.875c0 0.001 0 0.003 0 0.004 0 0.516 0.418 0.934 0.934 0.934 0.001 0 0.003 0 0.004 0h21.249c0.002 0 0.004 0 0.006 0 0.515 0 0.933-0.418 0.933-0.933 0-0.002 0-0.003 0-0.005v0-1.875c0-0.006 0-0.014 0-0.021 0-0.518-0.42-0.939-0.939-0.939h-0v0.022z">
         </path>
      </symbol>
      <symbol id="icon-case" viewBox="0 0 32 32">
         <path fill="#fe446f" style="fill: var(--color1, #fe446f)"
            d="M2.666 8.037c-1.473 0-2.666 1.194-2.666 2.666 0 0 0 0.001 0 0.001v-0 16c0 1.473 1.194 2.666 2.666 2.666v0h2.667v-21.333h-2.667zM18.666 8.037h-5.333v-2.666h5.333v2.666zM21.334 8.037v-2.666c0-1.473-1.194-2.666-2.666-2.666-0 0-0.001 0-0.001 0h-5.333c-1.473 0-2.667 1.194-2.667 2.666v2.666h-2.666v21.334h16v-21.333h-2.666zM29.334 8.037h-2.667v21.334h2.667c1.473 0 2.666-1.194 2.666-2.666v0-16c0-0 0-0.001 0-0.001 0-1.473-1.194-2.666-2.666-2.666v0z">
         </path>
      </symbol>
      <symbol id="icon-hands" viewBox="0 0 32 32">
         <path fill="#fe446f" style="fill: var(--color1, #fe446f)"
            d="M26.311 15.414v11.272l-6.951-6.952c-0.341-0.338-0.811-0.546-1.329-0.546-0.002 0-0.003 0-0.005 0h-1.804l-0.618 1.231c-0.623 1.248-1.891 2.091-3.356 2.091-0.542 0-1.057-0.115-1.522-0.323l0.024 0.009 2.858-5.734c0.309-0.618 0.937-1.035 1.663-1.035 0.005 0 0.009 0 0.014 0h-0.001l11.026-0.014zM18.814 10.726c0.516 0.003 0.934 0.42 0.938 0.937v0c-0.012 0.684-0.175 1.328-0.457 1.902l0.012-0.026h-4.044c0 0-0 0-0 0-1.461 0-2.727 0.835-3.346 2.054l-0.010 0.021-3.298 6.596c-0.063 0.123-0.1 0.269-0.1 0.423 0 0.377 0.22 0.702 0.539 0.855l0.006 0.002c1.191 0.542 2.2 0.96 3.653 0.84 2.040-0.183 3.754-1.416 4.612-3.149l0.015-0.033 0.058-0.106h0.654l6.666 6.666c-0.322 0.34-0.73 0.595-1.19 0.729l-0.019 0.005-8 2.52c-0.255 0.085-0.55 0.135-0.855 0.135-0.775 0-1.476-0.317-1.98-0.828l-0-0-2.666-2.666h-4.311v-13.125h1.654c0.001 0 0.002 0 0.004 0 0.363 0 0.678-0.21 0.829-0.515l0.002-0.005 0.84-1.675c0.472-0.93 1.421-1.556 2.516-1.556h7.28zM0.938 14.476c-0.001 0-0.002 0-0.003 0-0.516 0-0.934 0.418-0.934 0.934 0 0.001 0 0.003 0 0.004v-0 11.272c0 0.001 0 0.002 0 0.003 0 0.516 0.418 0.934 0.934 0.934 0.001 0 0.003 0 0.004 0h2.876v-13.146h-2.876zM31.062 14.476h-2.876v13.125h2.876c0.001 0 0.003 0 0.004 0 0.509 0 0.923-0.408 0.933-0.914v-11.272c0-0.001 0-0.002 0-0.003 0-0.516-0.418-0.934-0.934-0.934-0.001 0-0.002 0-0.003 0h0zM24.165 5.379c-0.17-0.172-0.406-0.278-0.667-0.278s-0.497 0.106-0.667 0.278l-0 0-1.876 1.871c-0.158 0.168-0.255 0.395-0.255 0.645 0 0.521 0.422 0.943 0.943 0.943 0.25 0 0.477-0.097 0.646-0.256l-0 0 1.876-1.875c0.17-0.17 0.276-0.405 0.276-0.664s-0.105-0.495-0.276-0.664l-0-0zM11.040 7.25l-1.875-1.872c-0.169-0.162-0.399-0.263-0.653-0.263-0.521 0-0.943 0.422-0.943 0.943 0 0.254 0.1 0.484 0.263 0.653l1.875 1.876c0.167 0.153 0.391 0.246 0.636 0.246 0.521 0 0.944-0.423 0.944-0.944 0-0.245-0.094-0.469-0.247-0.637l0.001 0.001v-0.004zM16 1.352c-0.001 0-0.003 0-0.005 0-0.515 0-0.933 0.418-0.933 0.933 0 0.002 0 0.004 0 0.006v-0 2.813c0 0.518 0.42 0.938 0.938 0.938s0.938-0.42 0.938-0.938v0-2.813c0-0.002 0-0.005 0-0.007 0-0.514-0.417-0.931-0.931-0.931-0.002 0-0.005 0-0.007 0h0z">
         </path>
      </symbol>
      <symbol id="icon-rose" viewBox="0 0 32 32">
         <path fill="#24c4d5" style="fill: var(--color1, #24c4d5)"
            d="M28.038 13.334h-10.666v-2.667h7.448c0.003 0 0.006 0 0.010 0 0.733 0 1.396-0.299 1.875-0.781l2.276-2.276c0.241-0.241 0.39-0.574 0.39-0.942s-0.149-0.701-0.39-0.942l-2.276-2.277c-0.479-0.483-1.142-0.782-1.876-0.782-0.003 0-0.006 0-0.009 0h-7.448v-2.666h-2.667v2.666h-10.666c-0.737 0-1.334 0.597-1.334 1.334v0 5.334c0 0.736 0.597 1.333 1.334 1.333h10.666v2.667h-7.448c-0.003 0-0.007-0-0.010-0-0.733 0-1.396 0.299-1.874 0.781l-2.276 2.277c-0.241 0.241-0.39 0.574-0.39 0.942s0.149 0.701 0.39 0.942l-0-0 2.28 2.276c0.479 0.483 1.142 0.782 1.876 0.782 0.003 0 0.006 0 0.010-0h7.443v8h-2.666c-1.472 0-2.666 1.193-2.666 2.666v0h13.333c0-1.473-1.194-2.666-2.666-2.666v0h-2.666v-8h10.666c0.737 0 1.334-0.597 1.334-1.334v0-5.334c-0-0.736-0.597-1.333-1.334-1.333v0z">
         </path>
      </symbol>
      <symbol id="icon-ipo" viewBox="0 0 32 32">
         <path fill="#24c4d5" style="fill: var(--color1, #24c4d5)"
            d="M31.062 0h-30.125c-0.518 0-0.938 0.42-0.938 0.938s0.42 0.938 0.938 0.938v0h30.125c0.518 0 0.938-0.42 0.938-0.938s-0.42-0.938-0.938-0.938v0zM15.338 12.031v2.062h-2.066v-2.062h2.066zM21.205 12.031c0.569 0 1.030 0.462 1.030 1.031v0 3.938c-0.027 0.548-0.478 0.982-1.031 0.982s-1.004-0.434-1.031-0.98l-0-0.002v-3.938c0-0 0-0.001 0-0.002 0-0.569 0.461-1.030 1.030-1.030 0 0 0.001 0 0.001 0h-0zM15.516 10.155h-2.668c-0 0-0 0-0 0-0.81 0-1.468 0.653-1.475 1.462v7.357c0.021 0.501 0.433 0.9 0.938 0.9s0.916-0.398 0.938-0.898l0-0.002v-3.006h2.245c0 0 0 0 0 0 0.936 0 1.695-0.758 1.698-1.693v-2.427c-0.002-0.928-0.749-1.681-1.675-1.694h-0.001zM21.204 10.155c-1.605 0-2.906 1.301-2.906 2.906 0 0 0 0.001 0 0.001v-0 3.938c0 1.605 1.301 2.907 2.907 2.907s2.907-1.301 2.907-2.907v-3.938c0-0 0-0.001 0-0.001 0-1.605-1.301-2.906-2.906-2.906v0zM9.204 10.155c-0.001 0-0.003 0-0.005 0-0.515 0-0.933 0.418-0.933 0.933 0 0.002 0 0.004 0 0.006v-0 7.88c0 0.518 0.42 0.938 0.938 0.938s0.938-0.42 0.938-0.938v0-7.862c0-0.005 0-0.012 0-0.018 0-0.516-0.418-0.935-0.934-0.938h-0.004zM23.17 21.2h-13.966c-0.022-0.002-0.047-0.003-0.072-0.003-0.518 0-0.938 0.42-0.938 0.938s0.42 0.938 0.938 0.938c0.025 0 0.051-0.001 0.076-0.003l-0.003 0h13.965c0.022 0.002 0.047 0.003 0.072 0.003 0.518 0 0.938-0.42 0.938-0.938s-0.42-0.938-0.938-0.938c-0.026 0-0.051 0.001-0.076 0.003l0.003-0zM30.432 3.751v20.249c-0.002 0.979-0.577 1.824-1.407 2.216l-0.015 0.006-12 5.546c-0.301 0.143-0.654 0.226-1.026 0.226s-0.725-0.083-1.041-0.233l0.015 0.006-12-5.546c-0.846-0.398-1.422-1.243-1.424-2.222v-20.249h28.898z">
         </path>
      </symbol>
      <symbol id="icon-spinner" viewBox="0 0 32 32">
         <path fill="#ed6b31" style="fill: var(--color1, #ed6b31)"
            d="M16 7.68c0.53 0 0.96 0.86 0.96 1.92s-0.43 1.92-0.96 1.92c-0.53 0-0.96-0.86-0.96-1.92s0.43-1.92 0.96-1.92z">
         </path>
         <path fill="#ed6b31" style="fill: var(--color1, #ed6b31)"
            d="M20.16 8.795c0.459 0.265 0.402 1.224-0.129 2.143s-1.332 1.448-1.791 1.183c-0.459-0.265-0.402-1.224 0.129-2.143s1.332-1.448 1.791-1.183z">
         </path>
         <path fill="#ed6b31" style="fill: var(--color1, #ed6b31)"
            d="M23.205 11.84c0.265 0.459-0.264 1.261-1.183 1.791s-1.878 0.588-2.143 0.129c-0.265-0.459 0.264-1.261 1.183-1.791s1.878-0.588 2.143-0.129z">
         </path>
         <path fill="#ed6b31" style="fill: var(--color1, #ed6b31)"
            d="M24.32 16c0 0.53-0.86 0.96-1.92 0.96s-1.92-0.43-1.92-0.96c0-0.53 0.86-0.96 1.92-0.96s1.92 0.43 1.92 0.96z">
         </path>
         <path fill="#ed6b31" style="fill: var(--color1, #ed6b31)"
            d="M23.205 20.16c-0.265 0.459-1.224 0.402-2.143-0.129s-1.448-1.332-1.183-1.791c0.265-0.459 1.224-0.402 2.143 0.129s1.448 1.332 1.183 1.791z">
         </path>
         <path fill="#ed6b31" style="fill: var(--color1, #ed6b31)"
            d="M20.16 23.205c-0.459 0.265-1.261-0.264-1.791-1.183s-0.588-1.878-0.129-2.143c0.459-0.265 1.261 0.264 1.791 1.183s0.588 1.878 0.129 2.143z">
         </path>
         <path fill="#ed6b31" style="fill: var(--color1, #ed6b31)"
            d="M16 24.32c-0.53 0-0.96-0.86-0.96-1.92s0.43-1.92 0.96-1.92c0.53 0 0.96 0.86 0.96 1.92s-0.43 1.92-0.96 1.92z">
         </path>
         <path fill="#ed6b31" style="fill: var(--color1, #ed6b31)"
            d="M11.84 23.205c-0.459-0.265-0.402-1.224 0.129-2.143s1.332-1.448 1.791-1.183c0.459 0.265 0.402 1.224-0.129 2.143s-1.332 1.448-1.791 1.183z">
         </path>
         <path fill="#ed6b31" style="fill: var(--color1, #ed6b31)"
            d="M8.795 20.16c-0.265-0.459 0.264-1.261 1.183-1.791s1.878-0.588 2.143-0.129c0.265 0.459-0.264 1.261-1.183 1.791s-1.878 0.588-2.143 0.129z">
         </path>
         <path fill="#ed6b31" style="fill: var(--color1, #ed6b31)"
            d="M7.68 16c0-0.53 0.86-0.96 1.92-0.96s1.92 0.43 1.92 0.96c0 0.53-0.86 0.96-1.92 0.96s-1.92-0.43-1.92-0.96z">
         </path>
         <path fill="#ed6b31" style="fill: var(--color1, #ed6b31)"
            d="M8.795 11.84c0.265-0.459 1.224-0.402 2.143 0.129s1.448 1.332 1.183 1.791c-0.265 0.459-1.224 0.402-2.143-0.129s-1.448-1.332-1.183-1.791z">
         </path>
         <path fill="#ed6b31" style="fill: var(--color1, #ed6b31)"
            d="M11.84 8.795c0.459-0.265 1.261 0.264 1.791 1.183s0.588 1.878 0.129 2.143c-0.459 0.265-1.261-0.264-1.791-1.183s-0.588-1.878-0.129-2.143z">
         </path>
      </symbol>
   </defs>
</svg>