<svg aria-hidden="true" style="position:absolute;width:0;height:0;overflow:hidden" xmlns="http://www.w3.org/2000/svg">
   <defs>
      <symbol id="icon-logo" viewBox="0 0 82 32">
         <path fill="#0d0e17" style="fill:var(--color1, #0d0e17)"
            d="M5.826 32a1.488 1.488 0 0 1-1.355-2.11l2.498-5.416L.141 8.925a1.648 1.648 0 0 1 1.514-2.309c.662 0 1.261.395 1.52 1.003l4.958 11.632c.112.275.21.55.291.824.081.275.153.556.216.842.086-.286.174-.567.262-.842s.189-.555.301-.842l4.813-11.667a1.54 1.54 0 0 1 1.422-.95h.001a1.535 1.535 0 0 1 1.413 2.142L7.198 31.101a1.494 1.494 0 0 1-1.369.898h-.001z" />
         <path fill="#ed6a32" style="fill:var(--color2, #ed6a32)"
            d="M49.891 1.663v24.201c0 .918-.702 1.663-1.57 1.663s-1.57-.744-1.57-1.663V1.663C46.752.744 47.454 0 48.321 0s1.57.744 1.57 1.663zm7.233 5.779v13.976c0 .918-.702 1.663-1.57 1.663s-1.57-.745-1.57-1.664V7.443c0-.918.702-1.663 1.57-1.663s1.57.744 1.57 1.663zm-14.006 3.992v7.986c0 .918-.702 1.664-1.57 1.664s-1.57-.746-1.57-1.664v-7.986c0-.918.702-1.663 1.57-1.663s1.57.744 1.57 1.663z" />
         <path fill="#0d0e17" style="fill:var(--color1, #0d0e17)"
            d="M26.172 22.766c-3.725 0-6.744-3.013-6.744-6.73s3.019-6.729 6.744-6.729 6.744 3.013 6.744 6.729c0 3.717-3.019 6.73-6.744 6.73zm0-16.492c-5.404 0-9.784 4.371-9.784 9.762s4.381 9.763 9.784 9.763c5.404 0 9.784-4.371 9.784-9.763s-4.38-9.762-9.784-9.762zm45.382 16.492c-3.725 0-6.744-3.013-6.744-6.73s3.019-6.729 6.744-6.729 6.744 3.013 6.744 6.729c0 3.717-3.019 6.73-6.744 6.73zm0-16.492c-5.403 0-9.784 4.371-9.784 9.762s4.381 9.763 9.784 9.763c5.404 0 9.784-4.371 9.784-9.763s-4.38-9.762-9.784-9.762z" />
      </symbol>
      <symbol id="icon-burger" viewBox="0 0 88 32">
         <path d="M0 0h88.32v3.84h-88.32v-3.84z"></path>
         <path d="M0 14.080h88.32v3.84h-88.32v-3.84z"></path>
         <path d="M0 28.16h88.32v3.84h-88.32v-3.84z"></path>
      </symbol>
      <symbol id="icon-close" viewBox="0 0 69 32">
         <path d="M11 29l45.795-28.616 1.59 2.545-45.795 28.615z"></path>
         <path d="M13 0l45.795 28.616-1.59 2.544-45.795-28.616z"></path>
      </symbol>
      <symbol id="icon-path" viewBox="0 0 32 32">
         <path
            d="M31.736 16.002c-8.628 0.139-15.595 7.108-15.734 15.736l-0.002 0.262-0.002-0.264c-0.139-8.628-7.108-15.595-15.736-15.734l-0.262-0.002 0.264-0.002c8.716-0.141 15.736-7.25 15.736-15.998 0 8.748 7.021 15.856 15.736 15.998l0.264 0.002-0.264 0.002z">
         </path>
      </symbol>
      <symbol id="icon-ellipse" viewBox="0 0 32 32">
         <path d="M32 16c0 8.837-7.163 16-16 16s-16-7.163-16-16c0-8.837 7.163-16 16-16s16 7.163 16 16z"></path>
      </symbol>
      <symbol id="icon-features1" viewBox="0 0 32 32">
         <path fill="#fe446f" style="fill: var(--color1, #fe446f)"
            d="M23.334 0h-14.667c-4.786 0-8.666 3.88-8.666 8.666v14.667c0 4.786 3.88 8.666 8.666 8.666h14.667c4.786 0 8.666-3.88 8.666-8.666v-14.667c0-4.786-3.88-8.666-8.666-8.666z">
         </path>
         <path fill="#fff" style="fill: var(--color2, #fff)"
            d="M16.444 14.222v3.556c0 0.736-0.597 1.333-1.333 1.334h-0.965c-0.189 0.523-0.68 0.889-1.258 0.889-0.737 0-1.334-0.597-1.334-1.334s0.597-1.334 1.334-1.334c0.577 0 1.069 0.367 1.255 0.88l0.003 0.009h0.965c0.245 0 0.444-0.199 0.444-0.444v0-3.556c0-0.736 0.597-1.333 1.333-1.333h1.334v-1.333l2.222 1.778-2.222 1.778v-1.333h-1.334c-0.245 0-0.444 0.199-0.444 0.444v0z">
         </path>
      </symbol>
      <symbol id="icon-features2" viewBox="0 0 32 32">
         <path fill="#24C4D5" style="fill: var(--color1, #24C4D5)"
            d="M23.334 0h-14.667c-4.786 0-8.666 3.88-8.666 8.666v14.667c0 4.786 3.88 8.666 8.666 8.666h14.667c4.786 0 8.666-3.88 8.666-8.666v-14.667c0-4.786-3.88-8.666-8.666-8.666z">
         </path>
         <path fill="#fff" style="fill: var(--color2, #fff)"
            d="M16.444 14.222v3.556c0 0.736-0.597 1.333-1.333 1.334h-0.965c-0.189 0.523-0.68 0.889-1.258 0.889-0.737 0-1.334-0.597-1.334-1.334s0.597-1.334 1.334-1.334c0.577 0 1.069 0.367 1.255 0.88l0.003 0.009h0.965c0.245 0 0.444-0.199 0.444-0.444v0-3.556c0-0.736 0.597-1.333 1.333-1.333h1.334v-1.333l2.222 1.778-2.222 1.778v-1.333h-1.334c-0.245 0-0.444 0.199-0.444 0.444v0z">
         </path>
      </symbol>
      <symbol id="icon-features3" viewBox="0 0 32 32">
         <path fill="#7F4BDC" style="fill: var(--color1, #7F4BDC)"
            d="M23.334 0h-14.667c-4.786 0-8.666 3.88-8.666 8.666v14.667c0 4.786 3.88 8.666 8.666 8.666h14.667c4.786 0 8.666-3.88 8.666-8.666v-14.667c0-4.786-3.88-8.666-8.666-8.666z">
         </path>
         <path fill="#fff" style="fill: var(--color2, #fff)"
            d="M16.444 14.222v3.556c0 0.736-0.597 1.333-1.333 1.334h-0.965c-0.189 0.523-0.68 0.889-1.258 0.889-0.737 0-1.334-0.597-1.334-1.334s0.597-1.334 1.334-1.334c0.577 0 1.069 0.367 1.255 0.88l0.003 0.009h0.965c0.245 0 0.444-0.199 0.444-0.444v0-3.556c0-0.736 0.597-1.333 1.333-1.333h1.334v-1.333l2.222 1.778-2.222 1.778v-1.333h-1.334c-0.245 0-0.444 0.199-0.444 0.444v0z">
         </path>
      </symbol>
      <symbol id="icon-features4" viewBox="0 0 32 32">
         <path fill="#ED6A32" style="fill: var(--color1, #ED6A32)"
            d="M23.334 0h-14.667c-4.786 0-8.666 3.88-8.666 8.666v14.667c0 4.786 3.88 8.666 8.666 8.666h14.667c4.786 0 8.666-3.88 8.666-8.666v-14.667c0-4.786-3.88-8.666-8.666-8.666z">
         </path>
         <path fill="#fff" style="fill: var(--color2, #fff)"
            d="M16.444 14.222v3.556c0 0.736-0.597 1.333-1.333 1.334h-0.965c-0.189 0.523-0.68 0.889-1.258 0.889-0.737 0-1.334-0.597-1.334-1.334s0.597-1.334 1.334-1.334c0.577 0 1.069 0.367 1.255 0.88l0.003 0.009h0.965c0.245 0 0.444-0.199 0.444-0.444v0-3.556c0-0.736 0.597-1.333 1.333-1.333h1.334v-1.333l2.222 1.778-2.222 1.778v-1.333h-1.334c-0.245 0-0.444 0.199-0.444 0.444v0z">
         </path>
      </symbol>
      <symbol id="icon-possibilities" viewBox="0 0 32 32">
         <path fill="#fff" style="fill: var(--color1, #fff)"
            d="M16.25 26.5c5.661 0 10.25-4.589 10.25-10.25s-4.589-10.25-10.25-10.25c-5.661 0-10.25 4.589-10.25 10.25s4.589 10.25 10.25 10.25z">
         </path>
         <path fill="#ed6a32" style="fill: var(--color2, #ed6a32)"
            d="M16 0c8.837 0 16 7.163 16 16s-7.163 16-16 16-16-7.163-16-16 7.163-16 16-16zM16.078 8.565c-0 4.106-3.293 7.442-7.382 7.512l-0.007 0-0.124 0.001 0.122 0.002c4.053 0.068 7.32 3.335 7.389 7.381l0 0.007 0.001 0.124 0.002-0.123c0.069-4.052 3.336-7.319 7.381-7.389l0.131-0.002h-0.124c-4.096-0.070-7.39-3.407-7.39-7.513 0-0 0-0 0-0v0z">
         </path>
         <path fill="#000" style="fill: var(--color3, #000)" opacity="0.04"
            d="M16 0c8.837 0 16 7.163 16 16s-7.163 16-16 16-16-7.163-16-16 7.163-16 16-16zM16.078 8.565c-0 4.106-3.293 7.442-7.382 7.512l-0.007 0-0.124 0.001 0.122 0.002c4.053 0.068 7.32 3.335 7.389 7.381l0 0.007 0.001 0.124 0.002-0.123c0.069-4.052 3.336-7.319 7.381-7.389l0.131-0.002h-0.124c-4.096-0.070-7.39-3.407-7.39-7.513 0-0 0-0 0-0v0z">
         </path>
      </symbol>
      <symbol id="icon-arrow" viewBox="0 0 62 32">
         <path fill="none" stroke="#fff" style="stroke: var(--color1, #fff)" stroke-linejoin="miter"
            stroke-linecap="butt" stroke-miterlimit="4" stroke-width="4.7059"
            d="M0 16h56.471M45.176 2.824l13.176 13.176-13.176 13.176"></path>
      </symbol>
      <symbol id="icon-arrow2" viewBox="0 0 62 32">
         <path fill="none" stroke="#0d0e17" style="stroke: var(--color1, #0d0e17)" stroke-linejoin="miter"
            stroke-linecap="butt" stroke-miterlimit="4" stroke-width="4.7059"
            d="M0 16h56.471M45.176 2.824l13.176 13.176-13.176 13.176"></path>
      </symbol>
      <symbol id="icon-facebook" viewBox="0 0 32 32">
         <path fill="#0d0e17" style="fill: var(--color1, #0d0e17)"
            d="M31.776 15.888c0-8.775-7.114-15.888-15.888-15.888-8.775 0-15.888 7.114-15.888 15.888 0 7.929 5.81 14.503 13.406 15.695v-11.102h-4.034v-4.592h4.034v-3.5c0-3.982 2.372-6.182 6.001-6.182 1.738 0 3.556 0.31 3.556 0.31v3.91h-2.003c-1.973 0-2.59 1.225-2.59 2.483v2.978h4.406l-0.704 4.593h-3.701v11.102c7.596-1.192 13.406-7.765 13.406-15.695z">
         </path>
         <path fill="#fff" style="fill: var(--color2, #fff)"
            d="M22.073 20.48l0.705-4.592h-4.406v-2.978c0-1.257 0.615-2.483 2.589-2.483h2.003v-3.91s-1.817-0.311-3.556-0.311c-3.629 0-6.001 2.2-6.001 6.182v3.5h-4.034v4.593h4.034v11.102c1.645 0.258 3.32 0.258 4.965 0v-11.102h3.702z">
         </path>
      </symbol>
      <symbol id="icon-instagram" viewBox="0 0 33 32">
         <path
            d="M16.149 2.861c4.245 0 4.747 0.019 6.416 0.093 1.552 0.069 2.39 0.329 2.949 0.546 0.738 0.286 1.272 0.633 1.825 1.186 0.514 0.499 0.918 1.109 1.174 1.791l0.011 0.034c0.217 0.558 0.478 1.402 0.546 2.947 0.074 1.676 0.093 2.178 0.093 6.418 0 4.245-0.018 4.748-0.093 6.416-0.068 1.552-0.329 2.39-0.546 2.948-0.268 0.715-0.672 1.325-1.184 1.824l-0.001 0.001c-0.499 0.514-1.109 0.918-1.791 1.175l-0.034 0.011c-0.559 0.217-1.403 0.478-2.948 0.546-1.675 0.074-2.178 0.093-6.417 0.093-4.245 0-4.748-0.019-6.417-0.093-1.552-0.069-2.389-0.329-2.948-0.546-0.716-0.268-1.325-0.672-1.824-1.185l-0.001-0.001c-0.514-0.499-0.918-1.108-1.174-1.79l-0.011-0.034c-0.217-0.559-0.478-1.403-0.546-2.948-0.075-1.676-0.094-2.178-0.094-6.418 0-4.245 0.019-4.748 0.094-6.416 0.068-1.552 0.328-2.39 0.546-2.948 0.286-0.738 0.633-1.273 1.186-1.825 0.499-0.514 1.109-0.919 1.791-1.175l0.034-0.011c0.558-0.217 1.403-0.478 2.948-0.546 1.669-0.074 2.172-0.093 6.416-0.093zM16.149 0c-4.313 0-4.853 0.019-6.548 0.093-1.689 0.075-2.849 0.348-3.854 0.738-1.049 0.41-1.936 0.95-2.818 1.838-0.888 0.881-1.428 1.768-1.838 2.811-0.391 1.012-0.664 2.166-0.738 3.854-0.074 1.701-0.093 2.24-0.093 6.554s0.019 4.853 0.094 6.548c0.074 1.688 0.347 2.848 0.738 3.854 0.409 1.049 0.949 1.936 1.837 2.818 0.773 0.787 1.711 1.41 2.758 1.813l0.053 0.018c1.012 0.391 2.166 0.665 3.854 0.738 1.694 0.075 2.234 0.094 6.548 0.094s4.853-0.019 6.548-0.094c1.689-0.074 2.849-0.347 3.854-0.738 1.101-0.42 2.039-1.043 2.811-1.829l0.001-0.001c0.788-0.773 1.41-1.711 1.813-2.759l0.018-0.053c0.391-1.012 0.665-2.166 0.738-3.854 0.075-1.694 0.094-2.234 0.094-6.548s-0.019-4.853-0.094-6.548c-0.074-1.688-0.347-2.849-0.738-3.854-0.404-1.108-1.025-2.053-1.817-2.823l-0.002-0.002c-0.773-0.787-1.711-1.41-2.758-1.812l-0.053-0.018c-1.012-0.391-2.166-0.665-3.855-0.739-1.7-0.080-2.239-0.099-6.553-0.099z">
         </path>
         <path
            d="M16.149 7.727c-4.506 0-8.162 3.655-8.162 8.161s3.655 8.162 8.162 8.162c4.505 0 8.161-3.655 8.161-8.162 0-4.505-3.655-8.161-8.161-8.161zM16.149 21.182c-2.884-0.052-5.202-2.402-5.202-5.294s2.318-5.242 5.197-5.294l0.005-0c2.884 0.052 5.202 2.402 5.202 5.294s-2.318 5.242-5.197 5.294l-0.005 0zM26.539 7.404c0 0 0 0.001 0 0.001 0 1.053-0.853 1.906-1.906 1.906s-1.906-0.853-1.906-1.906c0-1.053 0.853-1.906 1.906-1.906 0 0 0.001 0 0.001 0h-0c1.051 0.002 1.903 0.854 1.905 1.905v0z">
         </path>
      </symbol>
      <symbol id="icon-twitter" viewBox="0 0 33 32">
         <path
            d="M10.515 28.798c11.991 0 18.55-9.935 18.55-18.55 0-0.282 0-0.563-0.019-0.843 1.281-0.933 2.36-2.052 3.223-3.328l0.030-0.047c-1.091 0.497-2.356 0.858-3.682 1.019l-0.062 0.006c1.348-0.816 2.361-2.069 2.853-3.559l0.013-0.046c-1.192 0.719-2.578 1.268-4.056 1.568l-0.084 0.014c-1.193-1.266-2.881-2.054-4.753-2.054-3.604 0-6.526 2.922-6.526 6.526 0 0.523 0.062 1.032 0.178 1.52l-0.009-0.044c-5.431-0.28-10.208-2.861-13.411-6.778l-0.026-0.033c-0.555 0.939-0.883 2.070-0.883 3.277 0 2.253 1.142 4.239 2.878 5.411l0.023 0.015c-1.092-0.033-2.107-0.331-2.992-0.832l0.032 0.017v0.082c0 3.145 2.226 5.769 5.189 6.384l0.042 0.007c-0.513 0.146-1.103 0.229-1.712 0.229-0.436 0-0.862-0.043-1.273-0.125l0.041 0.007c0.859 2.61 3.25 4.471 6.084 4.527l0.006 0c-2.202 1.744-5.020 2.797-8.084 2.797-0.551 0-1.094-0.034-1.627-0.1l0.064 0.006c2.818 1.833 6.266 2.924 9.969 2.924 0.009 0 0.018 0 0.026-0h-0.001z">
         </path>
      </symbol>
      <symbol id="icon-linkedIn" viewBox="0 0 33 32">
         <path
            d="M30.214 0h-27.085c-1.295 0-2.345 1.051-2.345 2.346v0 27.085c0 1.295 1.050 2.345 2.345 2.345h27.085c1.296 0 2.346-1.050 2.346-2.346v-27.085c-0-1.295-1.051-2.345-2.346-2.345v0zM10.255 27.069h-4.778v-15.174h4.778v15.174zM7.862 9.792c-1.508-0.009-2.727-1.233-2.727-2.743 0-1.515 1.228-2.743 2.743-2.743s2.743 1.228 2.743 2.743c0 0.001 0 0.002 0 0.003v-0c0 0.011 0 0.024 0 0.037 0 1.493-1.21 2.704-2.704 2.704-0.019 0-0.039-0-0.058-0.001l0.003 0zM27.865 27.083h-4.775v-8.29c0-2.445-1.040-3.2-2.381-3.2-1.416 0-2.806 1.068-2.806 3.262v8.229h-4.778v-15.178h4.594v2.103h0.062c0.461-0.933 2.077-2.529 4.542-2.529 2.666 0 5.546 1.582 5.546 6.216l-0.002 9.387z">
         </path>
      </symbol>
      <symbol id="icon-youtube" viewBox="0 0 32 32">
         <path fill="#0d0e17" style="fill: var(--color1, #0d0e17)"
            d="M31.367 8.189c-0.375-1.378-1.435-2.443-2.781-2.82l-0.028-0.007c-2.485-0.668-12.414-0.668-12.414-0.668s-9.93 0-12.414 0.668c-1.375 0.383-2.435 1.448-2.804 2.799l-0.007 0.028c-0.665 2.494-0.665 7.698-0.665 7.698s0 5.204 0.665 7.699c0.375 1.379 1.434 2.444 2.781 2.821l0.028 0.007c2.485 0.668 12.414 0.668 12.414 0.668s9.93 0 12.414-0.668c1.375-0.384 2.434-1.449 2.803-2.799l0.007-0.028c0.665-2.495 0.665-7.699 0.665-7.699s0-5.203-0.665-7.698z">
         </path>
         <path fill="#fff" style="fill: var(--color2, #fff)" d="M12.894 20.613v-9.45l8.305 4.725-8.305 4.724z"></path>
      </symbol>
      <symbol id="icon-logo-footer" viewBox="0 0 169 32">
         <path fill="#f4f4f4" style="fill: var(--color1, #f4f4f4)" d="M0 0.219h30.72v8.37h-30.72v-8.37z"></path>
         <path fill="#ed6a32" style="fill: var(--color2, #ed6a32)"
            d="M15.386 32l-15.338-17.253v-14.528l15.338 17.253v14.528zM15.386 17.472v14.528l15.334-17.253v-14.528l-15.334 17.253z">
         </path>
         <path fill="#0d0e17" style="fill: var(--color3, #0d0e17)"
            d="M45.243 20.698c-0.005 0-0.011 0-0.017 0-0.143 0-0.275-0.052-0.376-0.138l0.001 0.001c-0.086-0.101-0.138-0.232-0.138-0.376 0-0.005 0-0.011 0-0.016l-0 0.001v-5.437l-5.553-9.4-0.046-0.138c-0.015-0.045-0.023-0.098-0.023-0.152 0-0.003 0-0.007 0-0.010v0c0-0.123 0.046-0.23 0.138-0.323 0.081-0.085 0.195-0.138 0.321-0.138 0.001 0 0.001 0 0.002 0h1.198c0.138 0 0.261 0.038 0.369 0.115 0.108 0.061 0.184 0.154 0.23 0.276l4.493 7.465 4.493-7.465c0.066-0.111 0.15-0.203 0.251-0.275l0.003-0.002c0.108-0.077 0.23-0.115 0.369-0.115h1.175c0.138 0 0.253 0.046 0.346 0.138 0.085 0.081 0.138 0.195 0.138 0.321 0 0.001 0 0.001 0 0.002v-0c0 0.002 0 0.004 0 0.007 0 0.11-0.035 0.211-0.093 0.294l0.001-0.002-5.53 9.4v5.437c0 0.154-0.054 0.284-0.161 0.392-0.092 0.092-0.223 0.138-0.392 0.138h-1.198zM57.88 20.928c-1.167 0-2.143-0.221-2.926-0.667-0.768-0.434-1.381-1.062-1.785-1.819l-0.012-0.024c-0.415-0.799-0.645-1.705-0.691-2.719-0.015-0.269-0.023-0.584-0.023-0.901 0-0.032 0-0.063 0-0.095l-0 0.005c0-0.415 0.008-0.745 0.023-0.991 0.046-1.029 0.276-1.935 0.691-2.719 0.429-0.778 1.048-1.405 1.797-1.831l0.023-0.012c0.783-0.445 1.751-0.668 2.903-0.668s2.12 0.223 2.903 0.668c0.783 0.445 1.382 1.060 1.797 1.843 0.43 0.783 0.668 1.69 0.714 2.719 0.015 0.246 0.023 0.576 0.023 0.991 0 0.399-0.008 0.73-0.023 0.991-0.046 1.014-0.276 1.92-0.691 2.719-0.416 0.781-1.029 1.409-1.775 1.831l-0.022 0.012c-0.783 0.445-1.759 0.668-2.926 0.668zM57.88 19.155c0.952 0 1.713-0.3 2.281-0.899 0.568-0.614 0.876-1.505 0.922-2.673 0.015-0.23 0.023-0.522 0.023-0.876s-0.008-0.645-0.023-0.876c-0.046-1.167-0.353-2.051-0.922-2.65-0.568-0.614-1.329-0.922-2.281-0.922s-1.72 0.307-2.304 0.922c-0.568 0.599-0.868 1.482-0.899 2.65-0.015 0.23-0.023 0.522-0.023 0.876s0.008 0.645 0.023 0.876c0.031 1.167 0.33 2.058 0.899 2.673 0.584 0.599 1.352 0.899 2.304 0.899zM66.639 20.699c-0.004 0-0.009 0-0.014 0-0.144 0-0.276-0.052-0.377-0.139l0.001 0.001c-0.086-0.101-0.138-0.232-0.138-0.376 0-0.005 0-0.011 0-0.016l-0 0.001v-15.299c-0-0.007-0.001-0.015-0.001-0.023 0-0.134 0.053-0.256 0.139-0.346l-0 0c0.097-0.1 0.233-0.161 0.382-0.161 0.003 0 0.007 0 0.010 0h1.081c0.17 0 0.3 0.054 0.392 0.161 0.086 0.090 0.139 0.211 0.139 0.345 0 0.008-0 0.016-0.001 0.024l0-0.001v15.299c0 0.154-0.046 0.284-0.138 0.392-0.092 0.092-0.221 0.138-0.392 0.138h-1.083zM72.128 20.699c-0.005 0-0.010 0-0.015 0-0.144 0-0.276-0.052-0.377-0.139l0.001 0.001c-0.086-0.101-0.138-0.232-0.138-0.376 0-0.005 0-0.011 0-0.016l-0 0.001v-15.299c-0-0.007-0.001-0.015-0.001-0.023 0-0.134 0.053-0.256 0.139-0.346l-0 0c0.097-0.1 0.233-0.161 0.382-0.161 0.003 0 0.007 0 0.010 0h1.082c0.169 0 0.298 0.054 0.392 0.161 0.085 0.089 0.138 0.211 0.138 0.344 0 0.009-0 0.017-0.001 0.026l0-0.001v15.299c0 0.154-0.045 0.284-0.138 0.392-0.092 0.092-0.221 0.138-0.39 0.138h-1.083zM77.614 20.699c-0.005 0-0.010 0-0.015 0-0.144 0-0.276-0.052-0.377-0.139l0.001 0.001c-0.086-0.101-0.138-0.232-0.138-0.376 0-0.005 0-0.011 0-0.016l-0 0.001v-15.299c-0-0.007-0.001-0.015-0.001-0.023 0-0.134 0.053-0.256 0.139-0.346l-0 0c0.097-0.1 0.233-0.161 0.382-0.161 0.003 0 0.007 0 0.010 0h1.082c0.169 0 0.3 0.054 0.392 0.161 0.086 0.090 0.139 0.211 0.139 0.345 0 0.008-0 0.016-0.001 0.024l0-0.001v15.299c0 0.154-0.046 0.284-0.138 0.392-0.092 0.092-0.223 0.138-0.392 0.138h-1.083zM87.457 20.929c-1.169 0-2.144-0.223-2.927-0.668-0.768-0.434-1.381-1.062-1.785-1.819l-0.012-0.024c-0.415-0.799-0.645-1.705-0.691-2.719-0.015-0.269-0.023-0.584-0.023-0.901 0-0.032 0-0.063 0-0.095l-0 0.005c0-0.415 0.008-0.745 0.023-0.991 0.046-1.029 0.276-1.935 0.691-2.719 0.429-0.778 1.048-1.405 1.797-1.831l0.023-0.012c0.783-0.445 1.751-0.668 2.903-0.668s2.12 0.223 2.903 0.668c0.783 0.445 1.382 1.060 1.797 1.843 0.43 0.783 0.668 1.69 0.714 2.719 0.015 0.246 0.023 0.576 0.023 0.991 0 0.399-0.008 0.73-0.023 0.991-0.046 1.014-0.276 1.92-0.691 2.719-0.416 0.781-1.029 1.409-1.775 1.831l-0.022 0.012c-0.783 0.445-1.759 0.668-2.926 0.668zM87.457 19.155c0.951 0 1.711-0.3 2.28-0.899 0.568-0.614 0.876-1.505 0.922-2.673 0.015-0.23 0.023-0.522 0.023-0.876s-0.008-0.645-0.023-0.876c-0.046-1.167-0.353-2.051-0.922-2.65-0.568-0.614-1.329-0.922-2.281-0.922s-1.72 0.307-2.304 0.922c-0.568 0.599-0.868 1.482-0.899 2.65-0.015 0.23-0.023 0.522-0.023 0.876s0.008 0.645 0.023 0.876c0.031 1.167 0.33 2.058 0.899 2.673 0.584 0.599 1.352 0.899 2.304 0.899zM107.020 20.929c-1.459 0-2.719-0.238-3.779-0.714-1.044-0.492-1.859-1.198-2.442-2.12-0.568-0.937-0.883-2.074-0.945-3.41-0.015-0.631-0.024-1.374-0.024-2.12s0.009-1.489 0.026-2.23l-0.002 0.11c0.061-1.306 0.384-2.412 0.968-3.318s1.405-1.597 2.465-2.074c1.060-0.476 2.304-0.714 3.732-0.714 1.152 0 2.173 0.146 3.064 0.438 0.891 0.276 1.636 0.653 2.235 1.129 0.614 0.476 1.075 0.998 1.382 1.567 0.323 0.568 0.492 1.129 0.507 1.682 0.002 0.015 0.004 0.033 0.004 0.051 0 0.119-0.055 0.225-0.141 0.294l-0.001 0.001c-0.085 0.085-0.203 0.138-0.332 0.138-0.005 0-0.009-0-0.014-0h-3.362c-0.013 0.001-0.029 0.001-0.044 0.001-0.125 0-0.245-0.026-0.353-0.072l0.006 0.002c-0.084-0.070-0.153-0.154-0.205-0.249l-0.002-0.005c-0.135-0.273-0.297-0.508-0.486-0.717l0.002 0.003c-0.228-0.281-0.513-0.507-0.838-0.662l-0.014-0.006c-0.353-0.184-0.822-0.276-1.405-0.276-0.876 0-1.567 0.23-2.074 0.691-0.492 0.461-0.76 1.198-0.806 2.212-0.022 0.598-0.035 1.3-0.035 2.004s0.013 1.407 0.037 2.106l-0.003-0.101c0.046 1.075 0.33 1.851 0.852 2.327s1.213 0.714 2.074 0.714c0.584 0 1.098-0.1 1.544-0.3 0.461-0.2 0.822-0.507 1.083-0.922 0.261-0.43 0.392-0.975 0.392-1.636v-0.438h-2.166c-0.004 0-0.008 0-0.012 0-0.164 0-0.313-0.061-0.427-0.162l0.001 0.001c-0.1-0.113-0.161-0.262-0.161-0.426 0-0.004 0-0.008 0-0.013v0.001-1.705c0-0.169 0.054-0.307 0.161-0.415 0.109-0.114 0.262-0.184 0.432-0.184 0.002 0 0.004 0 0.006 0h5.806c0.005-0 0.010-0 0.015-0 0.16 0 0.303 0.071 0.399 0.184l0.001 0.001c0.1 0.101 0.162 0.241 0.162 0.394 0 0.007-0 0.014-0 0.021l0-0.001v2.627c0 1.321-0.3 2.45-0.899 3.387s-1.452 1.659-2.557 2.166c-1.091 0.492-2.365 0.737-3.825 0.737zM117.151 20.699c-0.006 0-0.013 0-0.020 0-0.154 0-0.293-0.062-0.394-0.162l0 0c-0.1-0.101-0.162-0.241-0.162-0.394 0-0.007 0-0.014 0-0.021l-0 0.001v-10.83c0-0.154 0.054-0.284 0.161-0.392 0.097-0.113 0.24-0.185 0.4-0.185 0.005 0 0.011 0 0.016 0l-0.001-0h2.65c0.005-0 0.010-0 0.015-0 0.16 0 0.303 0.071 0.399 0.184l0.001 0.001c0.1 0.097 0.161 0.232 0.161 0.382 0 0.003-0 0.007-0 0.010v-0.001 0.922c0.415-0.476 0.906-0.845 1.475-1.106 0.556-0.248 1.206-0.392 1.889-0.392 0.025 0 0.049 0 0.073 0.001l-0.004-0h1.014c0.154 0 0.284 0.054 0.392 0.161 0.113 0.097 0.185 0.24 0.185 0.4 0 0.005-0 0.011-0 0.016l0-0.001v2.373c0 0.154-0.061 0.292-0.184 0.415-0.097 0.1-0.233 0.161-0.382 0.161-0.003 0-0.007-0-0.010-0h-2.234c-0.63 0-1.121 0.177-1.475 0.53-0.338 0.338-0.507 0.822-0.507 1.452v5.898c0 0.005 0 0.010 0 0.015 0 0.16-0.071 0.303-0.184 0.399l-0.001 0.001c-0.101 0.1-0.241 0.162-0.394 0.162-0.007 0-0.014-0-0.021-0l0.001 0h-2.857zM132.5 20.929c-1.29 0-2.381-0.207-3.272-0.622-0.876-0.415-1.551-1.006-2.028-1.774-0.461-0.783-0.722-1.713-0.783-2.788-0.015-0.307-0.023-0.653-0.023-1.037 0-0.399 0.008-0.745 0.023-1.037 0.061-1.091 0.338-2.020 0.829-2.788s1.175-1.359 2.051-1.774c0.891-0.415 1.958-0.622 3.203-0.622 1.26 0 2.327 0.207 3.203 0.622 0.891 0.415 1.582 1.006 2.074 1.774s0.768 1.697 0.829 2.788c0.015 0.292 0.023 0.637 0.023 1.037 0 0.384-0.008 0.73-0.023 1.037-0.061 1.075-0.33 2.004-0.806 2.788-0.461 0.768-1.137 1.359-2.028 1.774-0.876 0.415-1.966 0.622-3.272 0.622zM132.5 18.118c0.691 0 1.19-0.207 1.498-0.622 0.323-0.415 0.507-1.037 0.553-1.866 0.015-0.23 0.023-0.538 0.023-0.922s-0.008-0.691-0.023-0.922c-0.046-0.814-0.23-1.428-0.553-1.843-0.307-0.43-0.806-0.645-1.498-0.645-0.676 0-1.175 0.215-1.498 0.645-0.323 0.415-0.499 1.029-0.53 1.843-0.015 0.23-0.023 0.538-0.023 0.922s0.008 0.691 0.023 0.922c0.031 0.829 0.207 1.452 0.53 1.866s0.822 0.622 1.498 0.622zM145.18 20.929c-0.876 0-1.659-0.2-2.35-0.599-0.676-0.399-1.206-0.983-1.59-1.751-0.384-0.783-0.576-1.736-0.576-2.857v-6.429c0-0.169 0.054-0.307 0.161-0.415 0.101-0.1 0.241-0.162 0.394-0.162 0.007 0 0.014 0 0.021 0l-0.001-0h2.88c0.169 0 0.307 0.054 0.415 0.161 0.1 0.101 0.162 0.241 0.162 0.394 0 0.007-0 0.014-0 0.021l0-0.001v6.29c0 1.505 0.676 2.258 2.028 2.258 0.63 0 1.129-0.192 1.498-0.576 0.384-0.399 0.576-0.96 0.576-1.682v-6.29c0-0.169 0.054-0.307 0.161-0.415 0.101-0.1 0.241-0.162 0.394-0.162 0.007 0 0.014 0 0.021 0l-0.001-0h2.88c0.169 0 0.307 0.054 0.415 0.161 0.1 0.101 0.162 0.241 0.162 0.394 0 0.007-0 0.014-0 0.021l0-0.001v10.829c0 0.169-0.054 0.307-0.161 0.415-0.101 0.1-0.241 0.162-0.394 0.162-0.007 0-0.014-0-0.021-0l0.001 0h-2.673c-0.16-0-0.306-0.061-0.415-0.162l0 0c-0.1-0.101-0.162-0.241-0.162-0.394 0-0.007 0-0.014 0-0.021l-0 0.001v-0.876c-0.4 0.549-0.929 0.981-1.542 1.257l-0.024 0.010c-0.63 0.276-1.382 0.415-2.258 0.415zM156.001 25.076c-0.006 0-0.013 0-0.020 0-0.154 0-0.293-0.062-0.394-0.162l0 0c-0.1-0.101-0.162-0.241-0.162-0.394 0-0.007 0-0.014 0-0.021l-0 0.001v-15.208c0-0.169 0.054-0.307 0.161-0.415 0.101-0.1 0.241-0.162 0.394-0.162 0.007 0 0.014 0 0.021 0l-0.001-0h2.604c0.154 0 0.284 0.054 0.392 0.161 0.113 0.097 0.185 0.24 0.185 0.4 0 0.005-0 0.011-0 0.016l0-0.001v0.852c0.373-0.489 0.843-0.885 1.383-1.164l0.023-0.011c0.584-0.323 1.306-0.484 2.166-0.484 0.768 0 1.444 0.123 2.028 0.369 0.584 0.23 1.083 0.576 1.498 1.037s0.737 1.021 0.968 1.682c0.246 0.66 0.384 1.421 0.415 2.281 0.015 0.307 0.023 0.591 0.023 0.852s-0.008 0.545-0.023 0.852c-0.020 0.805-0.162 1.571-0.408 2.289l0.016-0.054c-0.23 0.66-0.553 1.221-0.968 1.682s-0.922 0.822-1.521 1.083c-0.584 0.246-1.26 0.369-2.028 0.369-0.753 0-1.413-0.131-1.981-0.392-0.556-0.279-1.019-0.668-1.375-1.142l-0.007-0.010v5.115c0 0.169-0.054 0.307-0.161 0.415-0.101 0.1-0.241 0.162-0.394 0.162-0.007 0-0.014-0-0.021-0l0.001 0h-2.811zM161.508 17.842c0.522 0 0.929-0.108 1.221-0.323s0.499-0.507 0.622-0.876c0.138-0.369 0.223-0.776 0.253-1.221 0.015-0.214 0.023-0.463 0.023-0.714s-0.008-0.501-0.025-0.748l0.002 0.034c-0.027-0.445-0.118-0.862-0.263-1.251l0.010 0.030c-0.115-0.359-0.332-0.659-0.618-0.872l-0.005-0.003c-0.292-0.215-0.699-0.323-1.221-0.323-0.507 0-0.914 0.115-1.221 0.346-0.307 0.215-0.53 0.499-0.668 0.852-0.135 0.341-0.218 0.735-0.23 1.147l-0 0.005c-0.015 0.258-0.023 0.56-0.023 0.864s0.008 0.606 0.025 0.906l-0.002-0.042c0.015 0.384 0.1 0.745 0.253 1.083 0.154 0.323 0.384 0.591 0.691 0.806 0.307 0.2 0.699 0.3 1.175 0.3z">
         </path>
      </symbol>
   </defs>
</svg>